<?xml version="1.0" standalone="no"?>
<!DOCTYPE svg PUBLIC "-//W3C//DTD SVG 20010904//EN"
 "http://www.w3.org/TR/2001/REC-SVG-20010904/DTD/svg10.dtd">
<svg version="1.0" xmlns="http://www.w3.org/2000/svg"
 width="600.000000pt" height="600.000000pt" viewBox="0 0 600.000000 600.000000"
 preserveAspectRatio="xMidYMid meet">
<g transform="translate(0.000000,600.000000) scale(0.100000,-0.100000)"
fill="#000000" stroke="none">
<path d="M298 5993 c7 -3 16 -2 19 1 4 3 -2 6 -13 5 -11 0 -14 -3 -6 -6z"/>
<path d="M1848 5993 c7 -3 16 -2 19 1 4 3 -2 6 -13 5 -11 0 -14 -3 -6 -6z"/>
<path d="M2878 5993 c7 -3 16 -2 19 1 4 3 -2 6 -13 5 -11 0 -14 -3 -6 -6z"/>
<path d="M3220 5989 c0 -5 5 -7 10 -4 6 3 10 8 10 11 0 2 -4 4 -10 4 -5 0 -10
-5 -10 -11z"/>
<path d="M3300 5990 c0 -5 5 -10 10 -10 6 0 10 5 10 10 0 6 -4 10 -10 10 -5 0
-10 -4 -10 -10z"/>
<path d="M4953 5993 c9 -2 23 -2 30 0 6 3 -1 5 -18 5 -16 0 -22 -2 -12 -5z"/>
<path d="M2260 5950 c0 -5 6 -10 14 -10 8 0 18 5 21 10 3 6 -3 10 -14 10 -12
0 -21 -4 -21 -10z"/>
<path d="M3115 5950 c-3 -5 -2 -10 4 -10 5 0 13 5 16 10 3 6 2 10 -4 10 -5 0
-13 -4 -16 -10z"/>
<path d="M3570 5951 c0 -10 50 -25 58 -16 3 3 -2 5 -11 5 -9 0 -17 5 -17 10 0
6 -7 10 -15 10 -8 0 -15 -4 -15 -9z"/>
<path d="M2100 5940 c0 -5 5 -10 11 -10 5 0 7 5 4 10 -3 6 -8 10 -11 10 -2 0
-4 -4 -4 -10z"/>
<path d="M2480 5945 c0 -2 7 -8 15 -15 12 -10 15 -10 15 2 0 8 -7 15 -15 15
-8 0 -15 -1 -15 -2z"/>
<path d="M517 5919 c8 -8 16 -8 30 0 16 9 14 10 -11 11 -22 0 -27 -3 -19 -11z"/>
<path d="M2310 5910 c-9 -6 -10 -10 -3 -10 6 0 15 5 18 10 8 12 4 12 -15 0z"/>
<path d="M40 5900 c0 -5 5 -10 10 -10 6 0 10 5 10 10 0 6 -4 10 -10 10 -5 0
-10 -4 -10 -10z"/>
<path d="M240 5890 c0 -5 9 -10 19 -10 11 0 23 5 26 10 4 6 -5 10 -19 10 -14
0 -26 -4 -26 -10z"/>
<path d="M3165 5890 c-4 -6 3 -10 14 -10 25 0 27 6 6 13 -8 4 -17 2 -20 -3z"/>
<path d="M650 5880 c0 -5 5 -10 10 -10 6 0 10 5 10 10 0 6 -4 10 -10 10 -5 0
-10 -4 -10 -10z"/>
<path d="M2150 5870 c0 -5 5 -10 10 -10 6 0 10 5 10 10 0 6 -4 10 -10 10 -5 0
-10 -4 -10 -10z"/>
<path d="M4710 5868 c0 -4 7 -8 15 -8 8 0 15 4 15 8 0 5 -7 9 -15 9 -8 0 -15
-4 -15 -9z"/>
<path d="M3201 5834 c0 -11 3 -14 6 -6 3 7 2 16 -1 19 -3 4 -6 -2 -5 -13z"/>
<path d="M2288 5833 c6 -2 18 -2 25 0 6 3 1 5 -13 5 -14 0 -19 -2 -12 -5z"/>
<path d="M2740 5822 c0 -4 17 -6 38 -4 58 5 62 10 10 11 -27 1 -48 -3 -48 -7z"/>
<path d="M70 5809 c0 -5 5 -7 10 -4 6 3 10 8 10 11 0 2 -4 4 -10 4 -5 0 -10
-5 -10 -11z"/>
<path d="M2508 5803 c7 -3 16 -2 19 1 4 3 -2 6 -13 5 -11 0 -14 -3 -6 -6z"/>
<path d="M3445 5790 c3 -5 8 -10 11 -10 2 0 4 5 4 10 0 6 -5 10 -11 10 -5 0
-7 -4 -4 -10z"/>
<path d="M2710 5780 c-9 -6 -10 -10 -3 -10 6 0 15 5 18 10 8 12 4 12 -15 0z"/>
<path d="M4018 5783 c12 -2 32 -2 45 0 12 2 2 4 -23 4 -25 0 -35 -2 -22 -4z"/>
<path d="M1650 5772 c0 -4 9 -8 19 -8 11 0 17 4 15 8 -3 4 -12 8 -20 8 -8 0
-14 -4 -14 -8z"/>
<path d="M1713 5773 c9 -2 23 -2 30 0 6 3 -1 5 -18 5 -16 0 -22 -2 -12 -5z"/>
<path d="M1783 5773 c9 -2 25 -2 35 0 9 3 1 5 -18 5 -19 0 -27 -2 -17 -5z"/>
<path d="M2760 5776 c0 -2 11 -6 25 -8 13 -3 22 -1 19 3 -5 9 -44 13 -44 5z"/>
<path d="M1886 5755 c-3 -9 0 -15 9 -15 8 0 15 7 15 15 0 8 -4 15 -9 15 -5 0
-11 -7 -15 -15z"/>
<path d="M240 5749 c0 -5 5 -7 10 -4 6 3 10 8 10 11 0 2 -4 4 -10 4 -5 0 -10
-5 -10 -11z"/>
<path d="M4795 5750 c3 -5 11 -10 16 -10 6 0 7 5 4 10 -3 6 -11 10 -16 10 -6
0 -7 -4 -4 -10z"/>
<path d="M30 5730 c-12 -8 -10 -10 8 -10 13 0 20 4 17 10 -7 12 -6 12 -25 0z"/>
<path d="M4480 5729 c0 -5 5 -7 10 -4 6 3 10 8 10 11 0 2 -4 4 -10 4 -5 0 -10
-5 -10 -11z"/>
<path d="M2270 5714 c0 -8 5 -12 10 -9 6 3 10 10 10 16 0 5 -4 9 -10 9 -5 0
-10 -7 -10 -16z"/>
<path d="M3478 5713 c7 -3 16 -2 19 1 4 3 -2 6 -13 5 -11 0 -14 -3 -6 -6z"/>
<path d="M4488 5693 c7 -3 16 -2 19 1 4 3 -2 6 -13 5 -11 0 -14 -3 -6 -6z"/>
<path d="M210 5680 c-9 -6 -10 -10 -3 -10 6 0 15 5 18 10 8 12 4 12 -15 0z"/>
<path d="M1730 5686 c0 -2 7 -7 16 -10 8 -3 12 -2 9 4 -6 10 -25 14 -25 6z"/>
<path d="M2068 5683 c7 -3 16 -2 19 1 4 3 -2 6 -13 5 -11 0 -14 -3 -6 -6z"/>
<path d="M110 5671 c0 -5 14 -11 32 -13 28 -5 29 -4 13 9 -21 15 -45 17 -45 4z"/>
<path d="M1877 5673 c-4 -3 -7 -11 -7 -17 0 -6 5 -5 12 2 6 6 9 14 7 17 -3 3
-9 2 -12 -2z"/>
<path d="M2320 5672 c0 -5 7 -9 15 -9 8 0 12 4 9 9 -3 4 -9 8 -15 8 -5 0 -9
-4 -9 -8z"/>
<path d="M2535 5670 c3 -5 8 -10 11 -10 2 0 4 5 4 10 0 6 -5 10 -11 10 -5 0
-7 -4 -4 -10z"/>
<path d="M2708 5673 c7 -3 16 -2 19 1 4 3 -2 6 -13 5 -11 0 -14 -3 -6 -6z"/>
<path d="M5628 5673 c7 -3 16 -2 19 1 4 3 -2 6 -13 5 -11 0 -14 -3 -6 -6z"/>
<path d="M1785 5660 c-3 -5 -1 -10 4 -10 6 0 11 5 11 10 0 6 -2 10 -4 10 -3 0
-8 -4 -11 -10z"/>
<path d="M2745 5660 c-3 -5 -1 -10 4 -10 6 0 11 5 11 10 0 6 -2 10 -4 10 -3 0
-8 -4 -11 -10z"/>
<path d="M2890 5630 c0 -18 -6 -33 -15 -36 -8 -4 -15 -15 -15 -25 0 -11 -7
-19 -16 -19 -11 0 -15 6 -11 20 4 15 0 20 -14 20 -10 0 -19 3 -19 8 0 4 -11 8
-24 8 -17 1 -23 -2 -19 -12 3 -8 0 -14 -6 -14 -6 0 -11 -5 -11 -10 0 -7 13 -8
34 -5 26 5 36 3 44 -10 7 -13 17 -16 38 -12 15 3 39 1 51 -4 18 -7 25 -5 30 7
3 8 1 20 -6 27 -8 8 -11 8 -11 -1 0 -7 -6 -12 -14 -12 -15 0 -15 37 -1 81 4
11 2 19 -4 19 -6 0 -11 -14 -11 -30z"/>
<path d="M1620 5640 c0 -5 5 -10 11 -10 5 0 7 5 4 10 -3 6 -8 10 -11 10 -2 0
-4 -4 -4 -10z"/>
<path d="M2475 5640 c3 -5 8 -10 11 -10 2 0 4 5 4 10 0 6 -5 10 -11 10 -5 0
-7 -4 -4 -10z"/>
<path d="M3078 5643 c7 -3 16 -2 19 1 4 3 -2 6 -13 5 -11 0 -14 -3 -6 -6z"/>
<path d="M2358 5623 c6 -2 18 -2 25 0 6 3 1 5 -13 5 -14 0 -19 -2 -12 -5z"/>
<path d="M90 5610 c0 -5 5 -10 11 -10 5 0 7 5 4 10 -3 6 -8 10 -11 10 -2 0 -4
-4 -4 -10z"/>
<path d="M1950 5610 c0 -5 5 -10 11 -10 5 0 7 5 4 10 -3 6 -8 10 -11 10 -2 0
-4 -4 -4 -10z"/>
<path d="M2658 5613 c6 -2 18 -2 25 0 6 3 1 5 -13 5 -14 0 -19 -2 -12 -5z"/>
<path d="M3055 5610 c3 -5 8 -10 11 -10 2 0 4 5 4 10 0 6 -5 10 -11 10 -5 0
-7 -4 -4 -10z"/>
<path d="M4310 5610 c0 -5 5 -10 10 -10 6 0 10 5 10 10 0 6 -4 10 -10 10 -5 0
-10 -4 -10 -10z"/>
<path d="M1675 5600 c-27 -7 -27 -8 -5 -8 14 0 36 4 50 8 20 6 21 8 5 8 -11 0
-33 -4 -50 -8z"/>
<path d="M1885 5600 c-4 -6 3 -10 14 -10 25 0 27 6 6 13 -8 4 -17 2 -20 -3z"/>
<path d="M2238 5603 c7 -3 16 -2 19 1 4 3 -2 6 -13 5 -11 0 -14 -3 -6 -6z"/>
<path d="M2480 5591 c0 -6 4 -13 10 -16 6 -3 7 1 4 9 -7 18 -14 21 -14 7z"/>
<path d="M2678 5593 c7 -3 16 -2 19 1 4 3 -2 6 -13 5 -11 0 -14 -3 -6 -6z"/>
<path d="M2970 5590 c0 -5 5 -10 10 -10 6 0 10 5 10 10 0 6 -4 10 -10 10 -5 0
-10 -4 -10 -10z"/>
<path d="M3785 5590 c-3 -5 1 -10 10 -10 9 0 13 5 10 10 -3 6 -8 10 -10 10 -2
0 -7 -4 -10 -10z"/>
<path d="M4268 5593 c7 -3 16 -2 19 1 4 3 -2 6 -13 5 -11 0 -14 -3 -6 -6z"/>
<path d="M4358 5593 c6 -2 18 -2 25 0 6 3 1 5 -13 5 -14 0 -19 -2 -12 -5z"/>
<path d="M2607 5584 c-4 -4 1 -13 11 -20 16 -12 15 -13 -5 -14 -30 0 -53 -10
-53 -22 0 -6 -8 -17 -17 -24 -10 -7 -13 -14 -7 -14 6 0 23 9 37 20 14 11 31
20 39 20 8 0 19 5 25 11 9 9 23 9 51 2 23 -6 46 -7 54 -2 10 7 10 9 -2 9 -8 0
-27 6 -42 14 -15 8 -37 12 -49 9 -11 -3 -24 -1 -28 6 -4 6 -10 8 -14 5z"/>
<path d="M3335 5580 c3 -5 8 -10 11 -10 2 0 4 5 4 10 0 6 -5 10 -11 10 -5 0
-7 -4 -4 -10z"/>
<path d="M1940 5569 c0 -5 5 -7 10 -4 6 3 10 8 10 11 0 2 -4 4 -10 4 -5 0 -10
-5 -10 -11z"/>
<path d="M2430 5558 c0 -12 3 -18 7 -14 11 10 12 36 2 36 -5 0 -9 -10 -9 -22z"/>
<path d="M2540 5568 c-1 -7 -16 -23 -34 -34 -25 -16 -38 -19 -51 -11 -11 6
-20 6 -24 0 -11 -17 -44 -24 -53 -11 -5 9 -8 6 -8 -9 0 -14 -6 -23 -16 -23 -8
0 -12 -5 -9 -10 5 -8 11 -7 21 1 8 6 14 8 14 5 0 -4 10 -2 22 5 11 6 38 11 60
11 27 -1 38 3 38 14 0 8 11 19 25 24 15 6 25 17 25 30 0 21 -10 29 -10 8z"/>
<path d="M3191 5568 c0 -9 -7 -18 -13 -21 -7 -2 -11 -7 -8 -10 11 -12 32 11
27 29 -4 15 -5 16 -6 2z"/>
<path d="M2568 5563 c7 -3 16 -2 19 1 4 3 -2 6 -13 5 -11 0 -14 -3 -6 -6z"/>
<path d="M2970 5552 c-8 -4 -16 -13 -18 -21 -2 -11 9 -13 60 -8 47 5 68 3 82
-8 11 -8 29 -15 40 -15 11 0 28 -8 38 -17 15 -14 24 -15 46 -6 32 12 60 21 50
16 -15 -9 -8 -23 11 -23 11 0 23 -5 26 -11 4 -6 22 -8 40 -6 18 3 38 0 44 -6
6 -6 11 -8 11 -4 0 4 13 1 30 -8 35 -18 67 -19 73 -2 3 6 6 2 6 -9 1 -18 29
-55 32 -43 8 38 7 56 -3 58 -7 1 -30 3 -52 5 -21 2 -42 10 -46 16 -10 16 -96
24 -105 10 -3 -5 -11 -10 -18 -10 -8 0 -8 3 1 12 19 19 14 30 -8 18 -17 -9
-20 -8 -20 9 0 11 5 21 11 23 6 2 9 13 6 23 -5 19 -5 19 -12 -2 -5 -15 -15
-23 -30 -23 -12 0 -34 -9 -48 -20 -30 -24 -38 -25 -30 -4 4 10 -1 17 -16 21
-12 3 -21 13 -21 24 0 11 -5 19 -11 19 -6 0 -8 -8 -4 -19 4 -15 0 -18 -20 -18
-13 0 -23 3 -20 6 2 4 0 13 -4 20 -6 10 -17 10 -47 2 -25 -7 -40 -7 -42 -1 -4
11 -10 12 -32 2z"/>
<path d="M3450 5549 c0 -5 5 -7 10 -4 6 3 10 8 10 11 0 2 -4 4 -10 4 -5 0 -10
-5 -10 -11z"/>
<path d="M4080 5550 c0 -5 7 -7 15 -4 8 4 15 8 15 10 0 2 -7 4 -15 4 -8 0 -15
-4 -15 -10z"/>
<path d="M3337 5544 c-4 -4 -4 -10 -1 -15 6 -10 34 0 34 12 0 10 -24 12 -33 3z"/>
<path d="M3422 5530 c0 -14 2 -19 5 -12 2 6 2 18 0 25 -3 6 -5 1 -5 -13z"/>
<path d="M38 5513 c7 -3 16 -2 19 1 4 3 -2 6 -13 5 -11 0 -14 -3 -6 -6z"/>
<path d="M2108 5513 c7 -3 16 -2 19 1 4 3 -2 6 -13 5 -11 0 -14 -3 -6 -6z"/>
<path d="M2250 5510 c0 -5 5 -10 11 -10 5 0 7 5 4 10 -3 6 -8 10 -11 10 -2 0
-4 -4 -4 -10z"/>
<path d="M2323 5513 c-18 -6 -16 -23 1 -23 17 0 30 16 19 23 -5 2 -14 2 -20 0z"/>
<path d="M648 5503 c7 -3 16 -2 19 1 4 3 -2 6 -13 5 -11 0 -14 -3 -6 -6z"/>
<path d="M1750 5490 c0 -5 7 -7 15 -4 8 4 15 8 15 10 0 2 -7 4 -15 4 -8 0 -15
-4 -15 -10z"/>
<path d="M2172 5478 c3 -16 1 -28 -3 -28 -5 0 -9 -7 -9 -15 0 -19 7 -19 26 0
8 8 22 11 30 8 11 -4 15 0 12 13 -2 11 2 18 10 17 6 -2 12 2 12 7 0 14 -23 12
-39 -2 -10 -11 -15 -9 -28 7 -15 19 -15 19 -11 -7z"/>
<path d="M185 5480 c-3 -5 1 -10 9 -10 8 0 18 5 21 10 3 6 -1 10 -9 10 -8 0
-18 -4 -21 -10z"/>
<path d="M297 5483 c-4 -3 -7 -11 -7 -17 0 -6 5 -5 12 2 6 6 9 14 7 17 -3 3
-9 2 -12 -2z"/>
<path d="M1448 5483 c7 -3 16 -2 19 1 4 3 -2 6 -13 5 -11 0 -14 -3 -6 -6z"/>
<path d="M3493 5475 c0 -9 7 -15 16 -13 19 4 18 22 -2 26 -7 2 -14 -4 -14 -13z"/>
<path d="M3613 5479 c-25 -9 -30 -19 -10 -19 15 0 43 17 37 23 -3 3 -15 1 -27
-4z"/>
<path d="M2010 5470 c0 -6 5 -10 11 -10 7 0 18 -8 26 -17 13 -16 13 -16 4 3
-11 23 -41 40 -41 24z"/>
<path d="M2257 5457 c-10 -10 -16 -21 -13 -24 7 -8 86 29 86 40 0 14 -55 3
-73 -16z"/>
<path d="M2080 5460 c0 -5 5 -10 10 -10 6 0 10 5 10 10 0 6 -4 10 -10 10 -5 0
-10 -4 -10 -10z"/>
<path d="M1966 5441 c-4 -7 -5 -15 -2 -18 9 -9 19 4 14 18 -4 11 -6 11 -12 0z"/>
<path d="M3580 5441 c0 -6 5 -13 10 -16 6 -3 10 1 10 9 0 9 -4 16 -10 16 -5 0
-10 -4 -10 -9z"/>
<path d="M3690 5432 c0 -10 -6 -24 -12 -31 -11 -11 -10 -12 6 -3 19 10 31 52
14 52 -4 0 -8 -8 -8 -18z"/>
<path d="M3733 5443 c-7 -3 -13 -9 -13 -15 0 -13 42 -6 47 8 4 11 -12 14 -34
7z"/>
<path d="M4000 5440 c0 -5 5 -10 11 -10 5 0 7 5 4 10 -3 6 -8 10 -11 10 -2 0
-4 -4 -4 -10z"/>
<path d="M938 5433 c7 -3 16 -2 19 1 4 3 -2 6 -13 5 -11 0 -14 -3 -6 -6z"/>
<path d="M1710 5430 c0 -5 5 -10 10 -10 6 0 10 5 10 10 0 6 -4 10 -10 10 -5 0
-10 -4 -10 -10z"/>
<path d="M2000 5435 c0 -5 5 -17 10 -25 5 -8 10 -10 10 -5 0 6 -5 17 -10 25
-5 8 -10 11 -10 5z"/>
<path d="M2073 5413 c-13 -13 -36 -26 -53 -29 -21 -5 -30 -12 -30 -26 0 -16
-5 -19 -22 -14 -13 3 -26 6 -30 6 -19 0 -5 20 15 21 17 1 15 3 -8 8 -27 6 -32
3 -44 -25 -14 -30 -16 -31 -78 -30 -34 1 -63 5 -63 10 0 5 -3 7 -6 3 -3 -3
-16 6 -28 20 -22 25 -46 25 -46 1 0 -6 3 -8 7 -5 14 14 33 -17 33 -54 0 -28
-4 -39 -15 -39 -8 0 -15 5 -15 10 0 6 -4 10 -10 10 -5 0 -10 -7 -10 -15 0 -8
-9 -15 -20 -15 -11 0 -20 -4 -20 -10 0 -5 -11 -10 -24 -10 -19 0 -25 6 -28 27
-2 14 -9 28 -16 31 -11 3 -12 0 -2 -17 11 -21 9 -59 -5 -93 -11 -28 11 -21 23
8 7 14 17 22 22 19 6 -3 10 -1 10 4 0 6 3 10 8 9 4 -1 21 5 37 12 17 7 35 12
42 11 15 -2 43 38 43 61 0 10 5 18 10 18 6 0 10 -4 10 -10 0 -5 25 -8 60 -5
72 4 102 13 95 26 -4 5 -2 9 4 9 5 0 13 -4 16 -10 10 -17 51 -11 70 10 10 11
27 22 39 26 11 4 32 15 45 25 16 13 32 17 50 12 24 -6 25 -5 12 11 -8 9 -20
15 -26 12 -7 -2 -16 -1 -21 3 -5 4 -19 -3 -31 -16z"/>
<path d="M1890 5420 c0 -5 5 -10 11 -10 5 0 7 5 4 10 -3 6 -8 10 -11 10 -2 0
-4 -4 -4 -10z"/>
<path d="M75 5410 c3 -5 10 -10 16 -10 5 0 9 5 9 10 0 6 -7 10 -16 10 -8 0
-12 -4 -9 -10z"/>
<path d="M3580 5391 c0 -4 -10 -13 -22 -19 -17 -8 -19 -11 -6 -11 9 -1 24 -4
32 -7 12 -5 15 -2 10 10 -4 11 -1 16 10 16 23 0 20 15 -4 17 -11 1 -20 -2 -20
-6z"/>
<path d="M3640 5391 c0 -5 -7 -17 -16 -25 -14 -15 -12 -16 18 -16 19 0 39 -5
45 -11 8 -8 13 -8 18 1 4 7 -1 14 -14 17 -11 3 -19 8 -17 12 3 4 -4 12 -15 19
-10 7 -19 8 -19 3z"/>
<path d="M1216 5378 c7 -11 34 -10 34 1 0 6 -9 9 -19 8 -11 0 -17 -5 -15 -9z"/>
<path d="M1823 5376 c3 -7 0 -19 -6 -25 -8 -8 -5 -11 14 -10 13 0 19 3 13 5
-7 3 -10 14 -7 24 3 12 0 20 -7 20 -7 0 -10 -6 -7 -14z"/>
<path d="M3715 5379 c-12 -18 3 -22 20 -5 14 14 14 16 1 16 -8 0 -18 -5 -21
-11z"/>
<path d="M1755 5370 c3 -5 8 -10 11 -10 2 0 4 5 4 10 0 6 -5 10 -11 10 -5 0
-7 -4 -4 -10z"/>
<path d="M3770 5370 c0 -5 5 -10 10 -10 6 0 10 5 10 10 0 6 -4 10 -10 10 -5 0
-10 -4 -10 -10z"/>
<path d="M3475 5340 c-16 -7 -17 -9 -3 -9 9 -1 20 4 23 9 7 11 7 11 -20 0z"/>
<path d="M3580 5330 c0 -5 4 -10 9 -10 6 0 13 5 16 10 3 6 -1 10 -9 10 -9 0
-16 -4 -16 -10z"/>
<path d="M3670 5329 c0 -9 7 -19 15 -22 8 -4 26 -24 40 -47 14 -22 32 -40 40
-40 8 0 15 -4 15 -10 0 -16 27 -12 34 5 3 10 -1 15 -14 15 -10 0 -22 5 -25 10
-4 6 -11 8 -16 5 -8 -6 -13 7 -10 30 0 6 -14 19 -32 30 -17 10 -35 23 -39 29
-5 7 -8 5 -8 -5z"/>
<path d="M3735 5330 c-8 -13 15 -13 35 0 12 8 11 10 -7 10 -12 0 -25 -4 -28
-10z"/>
<path d="M3830 5330 c0 -5 5 -10 10 -10 6 0 10 5 10 10 0 6 -4 10 -10 10 -5 0
-10 -4 -10 -10z"/>
<path d="M4238 5313 c7 -3 16 -2 19 1 4 3 -2 6 -13 5 -11 0 -14 -3 -6 -6z"/>
<path d="M1210 5306 c0 -2 9 -6 20 -9 11 -3 20 -1 20 4 0 5 -9 9 -20 9 -11 0
-20 -2 -20 -4z"/>
<path d="M3590 5300 c-13 -8 -13 -10 2 -10 9 0 20 5 23 10 8 13 -5 13 -25 0z"/>
<path d="M3804 5299 c-3 -6 -2 -15 3 -20 5 -5 9 -1 9 11 0 23 -2 24 -12 9z"/>
<path d="M1440 5285 c0 -9 6 -12 15 -9 8 4 15 10 15 15 0 5 -7 9 -15 9 -8 0
-15 -7 -15 -15z"/>
<path d="M1610 5286 c0 -9 5 -16 10 -16 6 0 10 4 10 9 0 6 -4 13 -10 16 -5 3
-10 -1 -10 -9z"/>
<path d="M838 5283 c7 -3 16 -2 19 1 4 3 -2 6 -13 5 -11 0 -14 -3 -6 -6z"/>
<path d="M1305 5280 c-3 -6 1 -7 9 -4 18 7 21 14 7 14 -6 0 -13 -4 -16 -10z"/>
<path d="M3932 5265 c-7 -8 -9 -15 -4 -15 5 0 15 7 22 15 16 19 -1 19 -18 0z"/>
<path d="M2509 5253 c-13 -16 -12 -17 4 -4 9 7 17 15 17 17 0 8 -8 3 -21 -13z"/>
<path d="M3875 5257 c-4 -10 -5 -21 -1 -24 10 -10 18 4 13 24 -4 17 -4 17 -12
0z"/>
<path d="M4176 5261 c-12 -5 -15 -10 -9 -14 6 -4 16 0 23 8 14 17 13 17 -14 6z"/>
<path d="M1515 5250 c3 -5 10 -10 16 -10 5 0 9 5 9 10 0 6 -7 10 -16 10 -8 0
-12 -4 -9 -10z"/>
<path d="M4044 5248 c-3 -4 2 -8 10 -8 8 0 17 4 20 8 3 5 -2 9 -10 9 -8 0 -17
-4 -20 -9z"/>
<path d="M160 5240 c0 -5 5 -10 11 -10 5 0 7 5 4 10 -3 6 -8 10 -11 10 -2 0
-4 -4 -4 -10z"/>
<path d="M4260 5244 c0 -5 -16 -18 -35 -28 -19 -11 -35 -23 -35 -28 0 -4 -9
-8 -21 -8 -12 0 -19 -5 -16 -12 2 -7 8 -13 13 -13 16 0 109 84 101 91 -4 4 -7
3 -7 -2z"/>
<path d="M1290 5190 c0 -19 3 -21 12 -12 9 9 9 15 0 24 -9 9 -12 7 -12 -12z"/>
<path d="M1350 5190 c0 -11 5 -20 10 -20 6 0 10 -8 10 -17 0 -9 7 -24 16 -34
10 -11 12 -19 5 -24 -6 -3 -11 1 -11 9 0 10 -9 16 -24 16 -17 0 -26 7 -29 23
-3 12 -4 7 -4 -12 2 -28 6 -35 24 -36 32 -2 41 -15 16 -21 -25 -7 -39 -34 -18
-34 8 0 22 11 31 25 9 14 23 25 32 25 12 0 13 3 5 11 -6 6 -9 18 -6 25 3 8 -2
17 -11 20 -9 3 -16 10 -16 16 0 5 4 6 10 3 5 -3 7 0 5 7 -3 7 -14 19 -25 26
-17 11 -20 10 -20 -8z"/>
<path d="M4030 5200 c0 -5 9 -10 19 -10 11 0 23 5 26 10 4 6 -5 10 -19 10 -14
0 -26 -4 -26 -10z"/>
<path d="M1458 5193 c7 -3 16 -2 19 1 4 3 -2 6 -13 5 -11 0 -14 -3 -6 -6z"/>
<path d="M4128 5193 c7 -3 16 -2 19 1 4 3 -2 6 -13 5 -11 0 -14 -3 -6 -6z"/>
<path d="M3795 5180 c3 -5 16 -10 27 -10 11 0 36 -9 54 -21 19 -11 34 -17 34
-14 0 4 6 2 13 -4 8 -6 16 -9 18 -6 3 2 5 -5 6 -16 1 -10 9 -26 17 -35 9 -8
16 -21 16 -28 0 -14 28 -43 45 -47 10 -3 32 -30 51 -64 15 -28 44 -32 44 -7 0
15 -5 19 -20 15 -16 -4 -19 -2 -14 12 5 12 1 23 -11 31 -11 8 -15 19 -11 30 5
14 1 16 -28 11 -58 -9 -60 37 -3 66 45 23 98 54 105 61 3 3 -7 5 -21 4 -15 -1
-27 -6 -27 -10 0 -5 -25 -20 -55 -35 -40 -20 -58 -24 -66 -16 -8 8 -8 16 0 30
8 14 11 14 11 3 0 -13 1 -13 10 0 9 13 11 13 20 0 6 -10 10 -11 10 -2 0 6 6
12 13 12 7 0 22 7 33 15 18 15 18 16 -11 11 -16 -3 -58 -8 -92 -11 -52 -6 -63
-4 -63 8 0 9 -14 17 -37 21 -54 9 -75 7 -68 -4z"/>
<path d="M3946 5181 c-4 -5 3 -7 14 -4 23 6 26 13 6 13 -8 0 -17 -4 -20 -9z"/>
<path d="M255 5170 c-3 -5 -1 -10 4 -10 6 0 11 5 11 10 0 6 -2 10 -4 10 -3 0
-8 -4 -11 -10z"/>
<path d="M1474 5145 c4 -15 2 -25 -4 -25 -6 0 -9 -4 -6 -9 3 -4 -7 -14 -22
-21 -16 -8 -22 -14 -14 -17 7 -3 24 3 38 12 14 9 33 14 42 10 14 -5 14 -4 -1
13 -9 10 -17 28 -17 40 0 12 -5 22 -11 22 -7 0 -9 -10 -5 -25z"/>
<path d="M1520 5158 c0 -7 4 -19 9 -26 7 -11 10 -10 15 3 3 9 4 21 0 26 -8 13
-24 11 -24 -3z"/>
<path d="M438 5153 c7 -3 16 -2 19 1 4 3 -2 6 -13 5 -11 0 -14 -3 -6 -6z"/>
<path d="M1440 5150 c0 -5 5 -10 11 -10 5 0 7 5 4 10 -3 6 -8 10 -11 10 -2 0
-4 -4 -4 -10z"/>
<path d="M4129 5122 c-8 -9 -29 -27 -44 -39 -16 -13 -25 -23 -20 -23 6 0 3 -5
-5 -11 -8 -6 -10 -9 -4 -7 13 3 88 70 98 87 11 17 -7 12 -25 -7z"/>
<path d="M1085 5100 c3 -5 8 -10 11 -10 2 0 4 5 4 10 0 6 -5 10 -11 10 -5 0
-7 -4 -4 -10z"/>
<path d="M4266 5073 c17 -12 34 -9 34 7 0 4 -11 7 -25 6 -22 -1 -23 -2 -9 -13z"/>
<path d="M1070 5060 c0 -5 7 -10 15 -10 8 0 15 5 15 10 0 6 -7 10 -15 10 -8 0
-15 -4 -15 -10z"/>
<path d="M1180 5061 c0 -5 7 -12 16 -15 22 -9 24 -8 18 9 -7 16 -34 21 -34 6z"/>
<path d="M4811 5054 c0 -11 3 -14 6 -6 3 7 2 16 -1 19 -3 4 -6 -2 -5 -13z"/>
<path d="M1260 5014 c5 -20 6 -43 3 -50 -3 -8 0 -14 6 -14 6 0 11 9 11 20 0
12 13 29 33 41 l32 21 -37 -4 c-27 -3 -38 0 -38 9 0 7 -4 13 -9 13 -5 0 -5
-15 -1 -36z"/>
<path d="M4198 5043 c7 -3 16 -2 19 1 4 3 -2 6 -13 5 -11 0 -14 -3 -6 -6z"/>
<path d="M4150 5030 c-8 -5 -10 -10 -5 -10 6 0 17 5 25 10 8 5 11 10 5 10 -5
0 -17 -5 -25 -10z"/>
<path d="M4187 5014 c-19 -10 -27 -21 -23 -31 3 -8 6 -17 6 -19 0 -3 5 -2 10
1 6 4 8 11 4 16 -3 5 5 18 18 29 28 23 23 25 -15 4z"/>
<path d="M4888 5023 c7 -3 16 -2 19 1 4 3 -2 6 -13 5 -11 0 -14 -3 -6 -6z"/>
<path d="M1041 5004 c0 -11 3 -14 6 -6 3 7 2 16 -1 19 -3 4 -6 -2 -5 -13z"/>
<path d="M4240 5010 c0 -5 7 -10 15 -10 8 0 15 5 15 10 0 6 -7 10 -15 10 -8 0
-15 -4 -15 -10z"/>
<path d="M4760 5010 c-13 -8 -12 -10 3 -10 9 0 17 5 17 10 0 12 -1 12 -20 0z"/>
<path d="M1180 5000 c0 -5 4 -10 9 -10 6 0 13 5 16 10 3 6 -1 10 -9 10 -9 0
-16 -4 -16 -10z"/>
<path d="M295 4990 c3 -5 8 -10 11 -10 2 0 4 5 4 10 0 6 -5 10 -11 10 -5 0 -7
-4 -4 -10z"/>
<path d="M1112 4984 c-8 -9 -9 -14 -2 -14 6 0 8 -4 5 -10 -3 -5 1 -10 9 -10
17 0 21 17 8 36 -5 9 -11 8 -20 -2z"/>
<path d="M1196 4975 c-19 -14 -19 -15 7 -15 19 0 25 4 21 15 -4 8 -7 15 -8 15
0 0 -10 -7 -20 -15z"/>
<path d="M4480 4969 c0 -5 5 -7 10 -4 6 3 10 8 10 11 0 2 -4 4 -10 4 -5 0 -10
-5 -10 -11z"/>
<path d="M58 4963 c7 -3 16 -2 19 1 4 3 -2 6 -13 5 -11 0 -14 -3 -6 -6z"/>
<path d="M4135 4960 c-3 -5 1 -10 9 -10 9 0 16 5 16 10 0 6 -4 10 -9 10 -6 0
-13 -4 -16 -10z"/>
<path d="M430 4950 c0 -5 5 -10 10 -10 6 0 10 5 10 10 0 6 -4 10 -10 10 -5 0
-10 -4 -10 -10z"/>
<path d="M1035 4950 c-3 -5 -1 -10 4 -10 6 0 11 5 11 10 0 6 -2 10 -4 10 -3 0
-8 -4 -11 -10z"/>
<path d="M113 4933 c9 -2 23 -2 30 0 6 3 -1 5 -18 5 -16 0 -22 -2 -12 -5z"/>
<path d="M1127 4934 c-3 -4 0 -13 8 -21 8 -8 15 -21 15 -30 0 -12 -8 -15 -40
-10 -24 3 -40 1 -40 -5 0 -6 -6 -5 -15 2 -12 10 -15 10 -15 -4 0 -25 91 -27
119 -2 9 7 30 18 46 24 l30 10 -37 1 c-43 1 -54 27 -15 34 14 3 9 5 -14 6 -20
0 -38 -2 -42 -5z"/>
<path d="M1220 4931 c0 -18 17 -20 36 -6 18 14 18 14 -8 15 -16 0 -28 -4 -28
-9z"/>
<path d="M5761 4904 c0 -11 3 -14 6 -6 3 7 2 16 -1 19 -3 4 -6 -2 -5 -13z"/>
<path d="M108 4903 c7 -3 16 -2 19 1 4 3 -2 6 -13 5 -11 0 -14 -3 -6 -6z"/>
<path d="M1290 4895 c-14 -17 -5 -35 18 -34 15 1 15 2 0 6 -19 5 -23 15 -11
26 3 4 13 1 22 -6 14 -11 14 -10 2 6 -16 21 -16 21 -31 2z"/>
<path d="M4119 4903 c-10 -2 -19 -12 -21 -21 -4 -13 2 -17 24 -17 29 0 37 10
16 18 -10 4 -9 8 2 16 15 11 8 12 -21 4z"/>
<path d="M4165 4880 c-3 -5 -1 -10 4 -10 6 0 11 5 11 10 0 6 -2 10 -4 10 -3 0
-8 -4 -11 -10z"/>
<path d="M4280 4880 c0 -5 6 -10 14 -10 8 0 18 5 21 10 3 6 -3 10 -14 10 -12
0 -21 -4 -21 -10z"/>
<path d="M4215 4864 c-16 -7 -52 -13 -80 -14 -34 0 -45 -3 -35 -9 8 -6 18 -7
22 -5 8 5 11 -8 9 -41 -1 -12 8 -32 19 -45 41 -48 57 -65 79 -82 11 -10 21
-22 21 -28 0 -13 -27 -13 -35 0 -12 20 -26 10 -15 -10 10 -18 8 -20 -19 -20
-36 0 -52 19 -22 27 12 3 21 9 21 14 0 5 7 9 16 9 8 0 12 4 9 10 -8 13 -64
-15 -72 -36 -3 -8 0 -21 7 -28 9 -12 6 -15 -21 -18 -18 -2 -34 -9 -37 -16 -3
-11 0 -12 15 -4 10 6 38 13 62 17 40 6 42 5 32 -13 -11 -21 2 -32 37 -32 9 0
30 -7 47 -16 19 -10 31 -11 33 -5 2 6 13 11 24 11 17 0 18 3 8 15 -7 8 -23 15
-36 15 -13 0 -24 4 -24 10 0 13 38 32 50 25 5 -3 11 -1 15 5 3 5 18 8 33 5
l27 -6 -29 16 c-22 13 -30 14 -36 5 -8 -12 -70 -5 -70 8 1 21 19 33 42 27 16
-4 29 -2 33 6 6 9 -3 11 -39 7 -47 -6 -75 9 -37 19 37 9 11 23 -31 16 -37 -5
-41 -4 -35 11 4 10 7 21 7 26 0 5 9 12 20 15 11 3 20 13 20 21 0 20 -10 18
-37 -8 -30 -28 -58 -15 -58 27 0 29 11 36 84 50 31 5 34 10 19 22 -9 7 -23 6
-43 -3z m45 -254 c0 -5 -6 -10 -14 -10 -8 0 -23 -3 -33 -7 -16 -6 -16 -5 -4
10 15 18 51 23 51 7z m2 -29 c-11 -7 -11 -9 2 -14 9 -4 16 -11 16 -18 0 -7 -7
-8 -17 -4 -18 7 -40 13 -55 14 -5 1 -8 6 -8 12 0 6 7 8 16 5 8 -3 12 -2 9 4
-4 6 6 10 22 10 19 0 24 -3 15 -9z"/>
<path d="M4310 4850 c-8 -5 -12 -11 -9 -14 2 -3 11 -1 19 4 8 5 12 11 9 14 -2
3 -11 1 -19 -4z"/>
<path d="M1010 4820 c0 -4 11 -12 25 -18 26 -12 31 -27 15 -52 -9 -15 -15 -11
-68 38 -7 6 -15 12 -18 12 -9 0 -3 -10 21 -34 14 -14 25 -30 25 -36 0 -5 8
-10 18 -10 13 -1 11 -4 -8 -15 -33 -19 -50 -19 -50 0 0 9 -9 15 -21 15 -19 0
-19 -1 -5 -16 16 -15 22 -54 10 -54 -4 0 -16 10 -28 23 -12 13 -30 26 -41 30
-19 7 -19 6 -2 -7 9 -7 17 -24 17 -37 0 -20 2 -21 11 -9 8 11 12 12 16 3 2 -7
11 -13 19 -13 8 0 14 -9 14 -20 0 -16 -7 -20 -37 -20 -28 0 -34 -3 -23 -10 21
-13 57 -12 66 2 4 6 10 25 13 42 4 18 16 35 29 41 12 5 22 13 22 17 0 4 7 5
15 2 8 -4 13 -10 10 -14 -6 -10 22 -40 36 -40 5 0 9 5 9 10 0 6 -7 10 -15 10
-8 0 -15 5 -15 11 0 6 10 9 23 7 12 -2 21 -9 19 -16 -3 -16 20 -15 54 3 l29
15 -27 0 c-16 0 -28 -6 -28 -12 0 -9 -4 -8 -10 2 -16 24 -12 30 23 31 29 0 30
1 9 9 -23 10 -52 4 -52 -10 0 -10 -49 -10 -56 1 -2 5 2 22 11 38 8 17 15 38
15 47 0 9 8 22 17 29 14 11 9 13 -35 12 -29 0 -52 -4 -52 -7z"/>
<path d="M3663 4808 l-23 -11 22 -18 c11 -11 25 -19 31 -19 5 0 -1 9 -14 21
l-24 20 28 -4 c22 -3 25 -2 16 9 -6 8 -12 14 -13 13 0 0 -11 -5 -23 -11z"/>
<path d="M4160 4806 c0 -2 7 -6 15 -10 8 -3 15 -1 15 4 0 6 -7 10 -15 10 -8 0
-15 -2 -15 -4z"/>
<path d="M141 4784 c0 -11 3 -14 6 -6 3 7 2 16 -1 19 -3 4 -6 -2 -5 -13z"/>
<path d="M370 4790 c0 -5 11 -9 25 -8 14 1 25 6 25 10 0 4 -11 8 -25 8 -14 0
-25 -4 -25 -10z"/>
<path d="M528 4793 c7 -3 16 -2 19 1 4 3 -2 6 -13 5 -11 0 -14 -3 -6 -6z"/>
<path d="M265 4780 c3 -5 8 -10 11 -10 2 0 4 5 4 10 0 6 -5 10 -11 10 -5 0 -7
-4 -4 -10z"/>
<path d="M4276 4765 c-21 -18 -25 -25 -13 -25 10 0 17 5 17 10 0 6 6 10 14 10
8 0 16 7 20 15 8 22 -5 18 -38 -10z"/>
<path d="M4472 4745 c0 -16 2 -22 5 -12 2 9 2 23 0 30 -3 6 -5 -1 -5 -18z"/>
<path d="M4090 4736 c0 -8 51 -13 56 -5 3 5 -9 9 -25 9 -17 0 -31 -2 -31 -4z"/>
<path d="M4708 4723 c7 -3 16 -2 19 1 4 3 -2 6 -13 5 -11 0 -14 -3 -6 -6z"/>
<path d="M121 4704 c0 -11 3 -14 6 -6 3 7 2 16 -1 19 -3 4 -6 -2 -5 -13z"/>
<path d="M3913 4704 c-17 -7 -35 -19 -39 -26 -6 -10 -4 -10 8 0 9 7 32 14 51
15 27 2 33 5 25 15 -6 6 -11 12 -12 11 0 0 -15 -7 -33 -15z"/>
<path d="M156 4693 c-6 -14 -5 -15 5 -6 7 7 10 15 7 18 -3 3 -9 -2 -12 -12z"/>
<path d="M4090 4700 c20 -13 47 -13 55 0 4 6 -9 10 -32 10 -28 0 -34 -3 -23
-10z"/>
<path d="M4315 4700 c-3 -5 1 -10 9 -10 9 0 16 5 16 10 0 6 -4 10 -9 10 -6 0
-13 -4 -16 -10z"/>
<path d="M260 4685 c0 -8 5 -15 10 -15 6 0 10 7 10 15 0 8 -4 15 -10 15 -5 0
-10 -7 -10 -15z"/>
<path d="M4628 4693 c7 -3 16 -2 19 1 4 3 -2 6 -13 5 -11 0 -14 -3 -6 -6z"/>
<path d="M3925 4671 c-6 -5 -17 -11 -25 -14 -8 -2 -2 -3 15 -1 32 5 60 24 34
24 -8 0 -19 -4 -24 -9z"/>
<path d="M4545 4670 c-3 -5 -1 -10 4 -10 6 0 11 5 11 10 0 6 -2 10 -4 10 -3 0
-8 -4 -11 -10z"/>
<path d="M4628 4653 c7 -3 16 -2 19 1 4 3 -2 6 -13 5 -11 0 -14 -3 -6 -6z"/>
<path d="M5106 4635 c-4 -10 1 -15 16 -15 17 0 18 2 8 15 -7 8 -14 15 -15 15
-2 0 -5 -7 -9 -15z"/>
<path d="M1086 4615 c-8 -21 3 -45 22 -45 13 0 12 3 -3 14 -16 12 -17 16 -6
30 7 9 9 16 3 16 -5 0 -12 -7 -16 -15z"/>
<path d="M3966 4578 c-20 -28 -20 -48 -1 -48 8 0 15 -4 15 -10 0 -18 26 -11
48 13 l22 23 -23 22 c-29 28 -42 28 -61 0z m52 -16 c14 -21 13 -22 -22 -22
-20 0 -36 5 -36 10 0 6 5 10 10 10 6 0 10 7 10 16 0 21 20 13 38 -14z"/>
<path d="M1005 4583 c11 -3 26 -12 33 -21 6 -9 12 -11 12 -6 0 17 -23 34 -44
33 -21 -1 -21 -1 -1 -6z"/>
<path d="M830 4575 c0 -3 11 -23 24 -44 14 -21 26 -44 28 -52 4 -22 -48 -68
-70 -62 -11 2 -23 0 -26 -6 -4 -5 -14 -7 -24 -4 -15 6 -15 5 -3 -11 10 -12 16
-14 21 -5 6 8 9 8 15 -1 4 -7 1 -16 -6 -21 -19 -12 -29 -11 -29 1 0 6 -8 10
-17 10 -15 0 -14 -4 6 -19 24 -18 22 -41 -3 -41 -20 0 -68 41 -63 54 3 7 -1
20 -8 30 -13 17 -14 16 -26 -5 -9 -17 -9 -24 0 -27 6 -2 11 -9 11 -16 0 -7 9
-21 20 -31 20 -18 30 -92 11 -81 -5 3 -9 0 -8 -7 1 -33 -4 -47 -18 -47 -8 0
-15 5 -15 10 0 6 -9 10 -20 10 -11 0 -20 5 -20 10 0 6 -6 10 -14 10 -8 0 -22
7 -30 16 -14 13 -16 13 -16 1 0 -14 51 -51 95 -70 12 -5 16 -11 8 -15 -6 -4
-12 -16 -14 -26 -5 -25 -40 -46 -46 -28 -3 6 -9 12 -14 12 -5 0 -4 -9 3 -20 8
-12 19 -18 29 -15 10 3 19 -1 23 -10 3 -9 0 -15 -10 -15 -9 0 -14 -6 -11 -13
3 -8 1 -20 -3 -27 -5 -8 -4 -22 1 -32 10 -18 1 -24 -26 -18 -5 1 -4 -4 3 -11
16 -17 16 -59 -1 -59 -7 0 -19 6 -26 13 -11 10 -13 9 -9 -3 2 -8 14 -19 26
-25 25 -11 30 -45 7 -45 -8 0 -15 -5 -15 -11 0 -7 10 -9 25 -6 14 2 24 2 21 0
-3 -3 -1 -16 4 -29 8 -20 6 -24 -10 -24 -10 0 -25 7 -33 14 -13 13 -17 13 -33
0 -18 -15 -18 -15 2 -11 12 2 29 0 38 -5 17 -10 22 -38 6 -38 -16 0 -11 -37 6
-44 27 -10 37 -7 25 8 -11 13 -9 31 10 71 7 14 5 39 -5 78 -13 50 -13 62 -1
98 8 23 13 44 11 48 -3 4 0 27 5 50 5 24 10 59 11 77 1 19 3 32 6 29 6 -5 43
41 46 58 13 65 29 97 50 103 13 3 28 16 35 30 6 13 19 24 28 24 19 1 88 89 88
113 0 20 27 67 37 67 5 0 7 4 4 9 -3 5 -24 8 -45 7 -22 0 -37 2 -35 5 2 4 -3
10 -12 13 -19 7 -24 8 -24 1z m74 -55 c-6 -6 -15 -6 -24 0 -13 9 -13 11 0 20
18 11 39 -5 24 -20z m-66 -131 c-2 -6 -8 -10 -13 -10 -5 0 -11 4 -13 10 -2 6
4 11 13 11 9 0 15 -5 13 -11z"/>
<path d="M4360 4565 c0 -11 11 -15 43 -14 l42 1 -35 13 c-46 18 -50 18 -50 0z"/>
<path d="M38 4563 c7 -3 16 -2 19 1 4 3 -2 6 -13 5 -11 0 -14 -3 -6 -6z"/>
<path d="M4590 4560 c-9 -6 -10 -10 -3 -10 6 0 15 5 18 10 8 12 4 12 -15 0z"/>
<path d="M1194 4552 c3 -5 0 -13 -6 -15 -8 -3 -6 -6 5 -6 19 -1 23 14 5 25 -6
4 -8 3 -4 -4z"/>
<path d="M4121 4542 c39 -29 76 -45 88 -38 6 4 20 2 32 -5 26 -13 62 -21 107
-22 33 0 33 -1 10 -13 -28 -16 -52 -18 -43 -4 4 6 -8 10 -28 10 -18 0 -37 3
-41 8 -4 4 -30 8 -56 8 -66 2 -74 -20 -9 -24 103 -5 119 -7 119 -14 0 -5 6 -8
14 -8 8 0 16 -4 18 -9 2 -5 17 -12 33 -15 28 -6 28 -6 6 4 l-24 10 20 23 c11
12 23 30 26 40 4 9 13 17 22 17 8 0 15 5 15 11 0 6 -15 1 -34 -10 -35 -22 -66
-27 -66 -11 0 5 -13 7 -30 4 -16 -4 -36 -2 -42 3 -7 6 -31 14 -53 18 -48 8
-61 15 -46 25 7 4 -5 7 -25 8 l-36 1 23 -17z"/>
<path d="M780 4540 c-17 -5 -19 -8 -7 -9 9 -1 17 -5 17 -11 0 -5 5 -10 10 -10
6 0 9 6 8 13 -2 7 5 11 16 9 11 -2 15 1 11 7 -7 12 -19 13 -55 1z"/>
<path d="M4075 4531 c11 -11 34 -22 50 -25 l30 -6 -32 15 c-18 8 -33 20 -33
25 0 6 -8 10 -17 10 -16 0 -15 -2 2 -19z"/>
<path d="M1220 4536 c0 -2 7 -7 16 -10 8 -3 12 -2 9 4 -6 10 -25 14 -25 6z"/>
<path d="M430 4519 c0 -5 5 -7 10 -4 6 3 10 8 10 11 0 2 -4 4 -10 4 -5 0 -10
-5 -10 -11z"/>
<path d="M1175 4501 c6 -11 45 -10 45 1 0 4 -12 8 -26 8 -14 0 -23 -4 -19 -9z"/>
<path d="M948 4469 l-23 -21 27 16 c24 14 28 14 42 0 9 -8 16 -11 16 -5 0 6
-9 15 -19 21 -15 7 -24 5 -43 -11z"/>
<path d="M478 4473 c7 -3 16 -2 19 1 4 3 -2 6 -13 5 -11 0 -14 -3 -6 -6z"/>
<path d="M780 4469 c0 -5 5 -7 10 -4 6 3 10 8 10 11 0 2 -4 4 -10 4 -5 0 -10
-5 -10 -11z"/>
<path d="M4400 4470 c0 -13 28 -25 38 -16 3 4 0 11 -8 16 -20 13 -30 12 -30 0z"/>
<path d="M4465 4470 c-8 -13 5 -13 25 0 13 8 13 10 -2 10 -9 0 -20 -4 -23 -10z"/>
<path d="M600 4454 c0 -13 18 -39 24 -34 2 3 -2 14 -10 24 -8 11 -14 16 -14
10z"/>
<path d="M970 4439 c0 -7 -10 -9 -25 -7 -20 4 -23 3 -14 -8 8 -10 16 -10 35
-2 24 11 33 28 14 28 -5 0 -10 -5 -10 -11z"/>
<path d="M4140 4439 c0 -5 -5 -7 -12 -3 -7 4 -8 3 -4 -4 4 -7 25 -12 47 -12
22 0 39 -5 39 -11 0 -6 6 -9 14 -6 8 3 17 3 21 -1 3 -4 25 -7 47 -8 32 -1 45
-7 69 -35 16 -19 29 -41 29 -49 0 -8 19 -34 41 -58 35 -37 45 -43 68 -36 14 4
29 7 34 6 4 -1 7 3 7 9 0 7 -10 9 -25 5 -35 -9 -112 52 -88 69 12 9 10 13 -11
25 -14 7 -26 18 -26 24 -1 27 -47 53 -105 60 -32 4 -66 13 -75 21 -19 17 -70
20 -70 4z"/>
<path d="M30 4436 c0 -2 11 -6 25 -8 14 -3 25 -1 25 3 0 5 -11 9 -25 9 -14 0
-25 -2 -25 -4z"/>
<path d="M218 4433 c7 -3 16 -2 19 1 4 3 -2 6 -13 5 -11 0 -14 -3 -6 -6z"/>
<path d="M3860 4430 c0 -5 4 -10 9 -10 5 0 18 -3 28 -6 16 -6 16 -5 -2 9 -23
19 -35 21 -35 7z"/>
<path d="M4670 4429 c0 -5 5 -7 10 -4 6 3 10 8 10 11 0 2 -4 4 -10 4 -5 0 -10
-5 -10 -11z"/>
<path d="M4938 4423 c7 -3 16 -2 19 1 4 3 -2 6 -13 5 -11 0 -14 -3 -6 -6z"/>
<path d="M3855 4400 c3 -5 18 -10 32 -10 32 0 28 5 -10 14 -19 4 -26 3 -22 -4z"/>
<path d="M4136 4395 c-22 -16 -9 -20 32 -8 18 4 20 8 10 14 -17 11 -20 11 -42
-6z"/>
<path d="M1208 4393 c7 -3 16 -2 19 1 4 3 -2 6 -13 5 -11 0 -14 -3 -6 -6z"/>
<path d="M4413 4383 c15 -11 25 -22 22 -24 -2 -3 11 -3 30 -1 19 2 35 6 35 8
0 2 -18 8 -41 14 -22 6 -48 14 -57 17 -9 3 -5 -4 11 -14z"/>
<path d="M4007 4373 c-14 -13 -6 -22 19 -20 15 1 29 -4 32 -12 4 -11 -3 -12
-32 -7 -41 8 -51 -10 -11 -20 33 -8 55 1 55 24 0 32 -43 56 -63 35z"/>
<path d="M1205 4360 c-3 -5 -2 -10 4 -10 5 0 13 5 16 10 3 6 2 10 -4 10 -5 0
-13 -4 -16 -10z"/>
<path d="M4132 4354 c11 -11 21 -13 41 -5 15 6 27 12 27 14 0 1 -19 3 -42 4
-37 2 -40 0 -26 -13z"/>
<path d="M95 4340 c-3 -5 -1 -10 4 -10 6 0 11 5 11 10 0 6 -2 10 -4 10 -3 0
-8 -4 -11 -10z"/>
<path d="M4198 4333 c7 -3 16 -2 19 1 4 3 -2 6 -13 5 -11 0 -14 -3 -6 -6z"/>
<path d="M490 4310 c8 -5 22 -10 30 -10 13 0 13 1 0 10 -8 5 -22 10 -30 10
-13 0 -13 -1 0 -10z"/>
<path d="M3888 4313 c7 -3 16 -2 19 1 4 3 -2 6 -13 5 -11 0 -14 -3 -6 -6z"/>
<path d="M4205 4310 c-25 -6 -27 -8 -12 -15 12 -5 24 -2 35 9 9 9 14 15 12 15
-3 -1 -18 -5 -35 -9z"/>
<path d="M4278 4313 c7 -3 16 -2 19 1 4 3 -2 6 -13 5 -11 0 -14 -3 -6 -6z"/>
<path d="M4458 4313 c7 -3 16 -2 19 1 4 3 -2 6 -13 5 -11 0 -14 -3 -6 -6z"/>
<path d="M595 4290 c3 -5 15 -10 26 -10 11 0 17 5 14 10 -3 6 -15 10 -26 10
-11 0 -17 -4 -14 -10z"/>
<path d="M390 4269 c0 -5 5 -7 10 -4 6 3 10 8 10 11 0 2 -4 4 -10 4 -5 0 -10
-5 -10 -11z"/>
<path d="M4470 4276 c0 -2 11 -6 25 -8 13 -3 22 -1 19 3 -5 9 -44 13 -44 5z"/>
<path d="M438 4263 c7 -3 16 -2 19 1 4 3 -2 6 -13 5 -11 0 -14 -3 -6 -6z"/>
<path d="M4628 4203 c7 -3 16 -2 19 1 4 3 -2 6 -13 5 -11 0 -14 -3 -6 -6z"/>
<path d="M4251 4180 c-23 -20 -23 -20 -2 -20 12 0 20 4 19 9 -2 5 0 9 5 10 22
3 29 0 24 -13 -3 -8 1 -17 9 -20 12 -5 14 -1 8 17 -6 20 -22 37 -34 37 -3 -1
-16 -10 -29 -20z"/>
<path d="M4486 4192 c-3 -5 5 -15 19 -22 13 -7 26 -23 29 -36 4 -13 19 -32 34
-41 34 -22 40 -30 52 -72 5 -19 18 -44 29 -55 12 -12 23 -42 26 -65 6 -49 49
-109 78 -110 13 -1 17 -6 12 -20 -4 -14 0 -23 14 -31 11 -5 18 -17 15 -24 -3
-8 -1 -17 5 -21 6 -3 11 -14 11 -24 0 -12 9 -20 25 -23 29 -6 33 6 8 21 -16 9
-16 12 -3 21 12 8 9 10 -12 10 -16 0 -28 5 -28 11 0 8 16 10 53 5 76 -8 79 5
5 23 -57 14 -63 19 -66 44 -2 17 -9 27 -20 27 -24 1 -73 54 -74 81 -1 13 -5
29 -10 36 -5 7 -4 14 2 18 6 4 17 -1 25 -11 7 -11 17 -16 21 -11 4 4 2 7 -4 7
-7 0 -12 7 -12 15 0 9 -8 19 -17 22 -29 10 -63 40 -55 47 4 4 0 13 -9 19 -23
18 -1 52 34 52 15 -1 27 3 27 7 0 4 -24 8 -52 8 -49 1 -88 16 -88 35 0 4 9 5
20 2 11 -3 23 -1 26 4 3 5 -9 9 -25 9 -21 0 -31 5 -31 15 0 8 -7 15 -15 15 -8
0 -15 5 -15 10 0 12 -27 13 -34 2z"/>
<path d="M546 4171 c-4 -5 -1 -13 5 -17 8 -4 9 -3 5 4 -5 8 0 12 12 12 15 0
19 -5 15 -20 -3 -11 -1 -20 4 -20 5 0 9 10 8 23 -2 23 -38 37 -49 18z"/>
<path d="M30 4160 c-12 -8 -10 -10 8 -10 13 0 20 4 17 10 -7 12 -6 12 -25 0z"/>
<path d="M318 4153 c6 -2 18 -2 25 0 6 3 1 5 -13 5 -14 0 -19 -2 -12 -5z"/>
<path d="M478 4153 c7 -3 16 -2 19 1 4 3 -2 6 -13 5 -11 0 -14 -3 -6 -6z"/>
<path d="M4244 4138 c-4 -7 -4 -10 0 -6 4 3 19 0 33 -7 29 -15 56 -13 59 4 1
6 0 8 -2 3 -6 -11 -52 -3 -60 9 -8 13 -22 11 -30 -3z"/>
<path d="M523 4103 c9 -2 23 -2 30 0 6 3 -1 5 -18 5 -16 0 -22 -2 -12 -5z"/>
<path d="M703 4073 c9 -2 25 -2 35 0 9 3 1 5 -18 5 -19 0 -27 -2 -17 -5z"/>
<path d="M4082 4067 c-6 -7 -8 -18 -4 -24 10 -16 65 -25 82 -13 8 5 11 10 5
11 -5 1 -17 2 -25 3 -8 2 -26 3 -39 4 -24 2 -24 2 -5 17 10 8 14 15 8 15 -6 0
-16 -6 -22 -13z"/>
<path d="M4130 4070 c0 -5 7 -10 15 -10 8 0 15 5 15 10 0 6 -7 10 -15 10 -8 0
-15 -4 -15 -10z"/>
<path d="M524 4059 c-3 -6 -1 -16 5 -22 8 -8 11 -5 11 11 0 24 -5 28 -16 11z"/>
<path d="M4248 4063 c7 -3 16 -2 19 1 4 3 -2 6 -13 5 -11 0 -14 -3 -6 -6z"/>
<path d="M4640 4049 c0 -5 5 -7 10 -4 6 3 10 8 10 11 0 2 -4 4 -10 4 -5 0 -10
-5 -10 -11z"/>
<path d="M4236 4041 c-4 -5 3 -7 14 -4 23 6 26 13 6 13 -8 0 -17 -4 -20 -9z"/>
<path d="M4945 4040 c-3 -5 -1 -10 4 -10 6 0 11 5 11 10 0 6 -2 10 -4 10 -3 0
-8 -4 -11 -10z"/>
<path d="M4670 4030 c0 -12 8 -12 35 0 18 8 17 9 -7 9 -16 1 -28 -3 -28 -9z"/>
<path d="M475 4000 c-3 -5 -1 -10 4 -10 6 0 11 5 11 10 0 6 -2 10 -4 10 -3 0
-8 -4 -11 -10z"/>
<path d="M4195 3974 c-15 -16 -15 -18 3 -36 18 -19 21 -19 48 -4 l29 16 -34
-2 c-22 -2 -36 2 -39 11 -4 11 3 12 34 7 34 -7 36 -6 25 8 -17 21 -45 20 -66
0z"/>
<path d="M3258 3973 c12 -2 32 -2 45 0 12 2 2 4 -23 4 -25 0 -35 -2 -22 -4z"/>
<path d="M3252 3949 c17 -11 49 -11 67 0 10 6 -1 9 -33 9 -29 -1 -42 -4 -34
-9z"/>
<path d="M4870 3949 c0 -5 9 -9 20 -9 11 0 20 2 20 4 0 2 -9 6 -20 9 -11 3
-20 1 -20 -4z"/>
<path d="M872 3929 c-26 -10 -25 -27 1 -43 12 -8 20 -7 29 2 9 9 6 12 -15 12
-35 0 -35 18 1 22 15 2 23 6 17 9 -5 4 -21 3 -33 -2z"/>
<path d="M4760 3930 c0 -5 7 -10 16 -10 8 0 12 5 9 10 -3 6 -10 10 -16 10 -5
0 -9 -4 -9 -10z"/>
<path d="M4070 3919 c-12 -8 -10 -9 8 -4 14 4 22 2 22 -6 0 -8 -13 -10 -40 -6
-23 3 -40 1 -40 -5 0 -5 -6 -6 -12 -2 -10 5 -10 3 0 -7 10 -10 15 -11 20 -2 5
7 13 9 21 3 8 -4 21 -6 30 -3 11 4 10 0 -4 -11 -11 -9 -14 -15 -6 -14 7 2 16
-3 19 -11 3 -8 0 -11 -7 -7 -6 4 -11 2 -11 -3 0 -6 6 -11 14 -11 17 0 29 27
16 35 -6 4 -6 13 0 26 18 32 -1 49 -30 28z"/>
<path d="M2548 3913 c12 -2 30 -2 40 0 9 3 -1 5 -23 4 -22 0 -30 -2 -17 -4z"/>
<path d="M170 3900 c-12 -8 -10 -10 8 -10 13 0 20 4 17 10 -7 12 -6 12 -25 0z"/>
<path d="M430 3900 c-13 -8 -12 -10 3 -10 9 0 17 5 17 10 0 12 -1 12 -20 0z"/>
<path d="M4710 3898 c0 -5 9 -12 20 -15 24 -6 30 -5 30 5 0 11 -50 22 -50 10z"/>
<path d="M58 3893 c7 -3 16 -2 19 1 4 3 -2 6 -13 5 -11 0 -14 -3 -6 -6z"/>
<path d="M890 3865 c-16 -19 -1 -19 24 0 16 12 17 15 4 15 -8 0 -21 -7 -28
-15z"/>
<path d="M40 3860 c0 -5 5 -10 10 -10 6 0 10 5 10 10 0 6 -4 10 -10 10 -5 0
-10 -4 -10 -10z"/>
<path d="M240 3854 c0 -8 5 -12 10 -9 6 4 8 11 5 16 -9 14 -15 11 -15 -7z"/>
<path d="M315 3861 c-3 -5 -1 -12 5 -16 5 -3 10 1 10 9 0 18 -6 21 -15 7z"/>
<path d="M4021 3867 c2 -1 12 -9 22 -16 15 -12 17 -12 11 3 -3 9 -13 16 -22
16 -8 0 -13 -1 -11 -3z"/>
<path d="M5890 3855 c0 -8 5 -15 10 -15 6 0 10 7 10 15 0 8 -4 15 -10 15 -5 0
-10 -7 -10 -15z"/>
<path d="M5955 3861 c-3 -5 -1 -12 5 -16 5 -3 10 1 10 9 0 18 -6 21 -15 7z"/>
<path d="M940 3852 c0 -7 -12 -13 -27 -13 -26 -2 -26 -2 -4 -6 24 -5 50 11 38
24 -4 3 -7 1 -7 -5z"/>
<path d="M3380 3852 c0 -7 -7 -12 -16 -12 -8 0 -12 -5 -8 -11 4 -7 11 -6 22 5
9 8 13 19 9 22 -4 4 -7 2 -7 -4z"/>
<path d="M4888 3843 c6 -2 18 -2 25 0 6 3 1 5 -13 5 -14 0 -19 -2 -12 -5z"/>
<path d="M75 3830 c3 -5 8 -10 11 -10 2 0 4 5 4 10 0 6 -5 10 -11 10 -5 0 -7
-4 -4 -10z"/>
<path d="M4820 3818 c0 -12 3 -17 8 -12 4 5 11 12 15 15 5 3 2 9 -7 12 -12 5
-16 0 -16 -15z"/>
<path d="M3996 3803 c9 -38 14 -42 14 -10 0 14 -5 29 -10 32 -7 4 -8 -3 -4
-22z"/>
<path d="M2569 3803 c-13 -16 -12 -17 3 -5 9 8 23 10 29 6 8 -4 9 -3 5 4 -10
17 -21 15 -37 -5z"/>
<path d="M3510 3810 c0 -4 12 -10 26 -13 18 -3 22 -1 15 6 -13 13 -41 18 -41
7z"/>
<path d="M3770 3801 c6 -12 15 -21 20 -21 6 0 9 -6 8 -12 -2 -7 7 -14 20 -16
12 -2 20 -7 17 -11 -2 -4 6 -13 18 -20 12 -7 31 -25 42 -41 11 -17 23 -30 28
-30 4 0 7 -7 7 -15 0 -8 -4 -15 -10 -15 -5 0 -10 4 -10 8 0 16 -98 112 -114
112 -33 0 -24 -20 14 -30 22 -6 40 -13 40 -16 0 -3 -9 -3 -20 0 -11 3 -28 8
-38 11 -12 3 -19 0 -19 -9 0 -8 3 -15 6 -14 18 2 21 -4 10 -23 -8 -15 -8 -19
0 -15 21 13 11 -13 -11 -28 -12 -9 -17 -16 -11 -16 6 0 19 7 28 16 9 9 19 14
22 11 3 -4 17 3 31 14 l26 20 21 -27 c13 -16 27 -24 33 -20 17 10 15 31 -3 46
-9 7 -14 19 -11 27 3 8 1 11 -4 8 -9 -6 -14 7 -11 27 0 4 -6 5 -15 1 -13 -5
-15 -2 -9 15 4 13 2 22 -4 22 -6 0 -11 -6 -11 -12 0 -9 -3 -8 -10 2 -14 23 6
37 31 22 30 -19 35 -8 6 11 -23 15 -26 14 -45 -4 -25 -23 -32 -24 -32 -5 0 7
-12 21 -26 31 -25 16 -25 16 -14 -4z m80 -125 c0 4 3 5 6 2 3 -4 -4 -16 -17
-29 -15 -15 -20 -17 -16 -6 4 11 2 14 -9 10 -7 -3 -14 0 -14 6 0 6 5 11 11 11
5 0 7 5 3 11 -4 8 0 8 15 0 11 -7 21 -9 21 -5z"/>
<path d="M3950 3801 c0 -10 19 -25 25 -20 1 2 -3 10 -11 17 -8 7 -14 8 -14 3z"/>
<path d="M2652 3784 c-12 -8 -22 -19 -22 -24 0 -15 38 -22 57 -11 15 9 12 10
-17 11 l-35 0 30 20 c17 11 25 20 20 20 -6 0 -21 -7 -33 -16z"/>
<path d="M388 3783 c6 -2 18 -2 25 0 6 3 1 5 -13 5 -14 0 -19 -2 -12 -5z"/>
<path d="M845 3780 c-17 -7 -15 -9 13 -9 17 -1 32 4 32 9 0 12 -17 12 -45 0z"/>
<path d="M2437 3765 l-28 -24 26 -7 c14 -3 25 -13 25 -21 0 -11 -4 -13 -12 -6
-18 14 -57 23 -63 14 -2 -5 12 -13 32 -19 30 -9 40 -9 53 3 10 9 21 11 30 5
17 -11 40 6 40 29 -1 15 -1 15 -10 0 -8 -14 -16 -15 -50 -7 -38 10 -40 12 -25
28 14 15 22 16 53 7 20 -6 40 -16 44 -22 5 -6 8 -2 8 9 0 13 5 17 18 14 10 -3
23 1 31 9 10 12 8 13 -16 6 -30 -8 -51 -8 -98 2 -23 4 -36 0 -58 -20z"/>
<path d="M2967 3783 c-4 -3 -7 -11 -7 -17 0 -6 4 -6 11 1 6 6 18 9 25 6 8 -3
14 0 14 6 0 12 -32 15 -43 4z"/>
<path d="M3610 3768 c-6 -18 -4 -27 10 -39 11 -9 16 -19 13 -23 -4 -3 -1 -6 6
-6 7 0 24 -9 38 -20 34 -26 43 -17 12 11 -18 16 -20 19 -6 15 10 -3 27 -6 38
-6 10 0 19 -5 19 -11 0 -5 -4 -8 -8 -5 -5 3 -9 -1 -9 -9 0 -20 13 -19 21 1 6
16 -6 47 -17 45 -4 -1 -15 -1 -24 -1 -15 0 -16 2 -3 10 13 8 12 10 -3 10 -10
0 -20 6 -23 14 -3 8 -12 12 -20 9 -21 -8 -17 -20 9 -27 17 -5 19 -8 8 -15 -10
-6 -22 -4 -37 7 -17 13 -20 22 -13 39 5 13 6 23 3 23 -2 0 -9 -10 -14 -22z"/>
<path d="M3750 3767 c0 -15 4 -27 9 -27 6 0 8 10 6 21 -6 33 -15 36 -15 6z"/>
<path d="M487 3764 c6 -16 19 -18 27 -5 3 5 -3 11 -13 14 -14 3 -18 1 -14 -9z"/>
<path d="M3508 3768 c8 -8 17 -8 34 0 22 10 21 11 -11 11 -27 1 -32 -2 -23
-11z"/>
<path d="M4840 3770 c0 -5 9 -10 20 -10 11 0 20 5 20 10 0 6 -9 10 -20 10 -11
0 -20 -4 -20 -10z"/>
<path d="M5980 3770 c0 -5 5 -10 10 -10 6 0 10 5 10 10 0 6 -4 10 -10 10 -5 0
-10 -4 -10 -10z"/>
<path d="M2740 3760 c-8 -5 -10 -10 -5 -10 6 0 17 5 25 10 8 5 11 10 5 10 -5
0 -17 -5 -25 -10z"/>
<path d="M3046 3761 c-4 -5 3 -7 14 -4 23 6 26 13 6 13 -8 0 -17 -4 -20 -9z"/>
<path d="M3970 3766 c0 -2 7 -9 15 -16 9 -7 15 -8 15 -2 0 5 -7 12 -15 16 -8
3 -15 4 -15 2z"/>
<path d="M168 3753 c6 -2 18 -2 25 0 6 3 1 5 -13 5 -14 0 -19 -2 -12 -5z"/>
<path d="M3170 3749 c12 -9 10 -10 -7 -6 -14 3 -27 -2 -35 -12 -10 -13 -10
-14 1 -4 7 6 20 9 28 6 12 -5 12 -7 1 -15 -9 -6 -6 -7 10 -3 12 4 22 2 22 -4
0 -6 7 -8 16 -4 8 3 14 15 12 27 -2 15 -11 21 -33 23 -23 2 -27 0 -15 -8z m36
-26 c-10 -10 -19 5 -10 18 6 11 8 11 12 0 2 -7 1 -15 -2 -18z"/>
<path d="M3323 3752 c-6 -4 -11 -21 -11 -38 1 -17 -2 -37 -6 -45 -4 -8 -1 -6
7 3 8 10 17 14 21 11 4 -4 2 5 -4 21 -8 23 -8 31 2 37 9 6 15 -1 18 -24 5 -30
6 -31 14 -9 5 14 3 28 -4 37 -14 17 -20 18 -37 7z"/>
<path d="M852 3739 c18 -7 33 -7 45 0 14 8 9 10 -27 10 -42 -1 -43 -1 -18 -10z"/>
<path d="M2818 3743 c7 -3 16 -2 19 1 4 3 -2 6 -13 5 -11 0 -14 -3 -6 -6z"/>
<path d="M2965 3740 c3 -5 15 -10 26 -10 11 0 17 5 14 10 -3 6 -15 10 -26 10
-11 0 -17 -4 -14 -10z"/>
<path d="M2744 3728 c10 -6 22 -6 26 -2 5 5 -3 10 -18 11 -22 1 -24 0 -8 -9z"/>
<path d="M3030 3731 c0 -22 26 -28 44 -10 17 17 18 19 3 19 -9 0 -17 -4 -17
-10 0 -5 -5 -10 -11 -10 -5 0 -7 5 -4 10 3 6 1 10 -4 10 -6 0 -11 -4 -11 -9z"/>
<path d="M5818 3733 c7 -3 16 -2 19 1 4 3 -2 6 -13 5 -11 0 -14 -3 -6 -6z"/>
<path d="M480 3720 c0 -5 5 -10 11 -10 5 0 7 5 4 10 -3 6 -8 10 -11 10 -2 0
-4 -4 -4 -10z"/>
<path d="M540 3720 c0 -5 5 -10 10 -10 6 0 10 5 10 10 0 6 -4 10 -10 10 -5 0
-10 -4 -10 -10z"/>
<path d="M2804 3718 c3 -17 36 -23 36 -8 0 7 -6 10 -14 7 -8 -3 -17 -2 -20 4
-2 5 -3 4 -2 -3z"/>
<path d="M2890 3715 c-10 -12 -6 -18 22 -35 37 -23 48 -25 48 -9 0 6 8 8 19 4
27 -8 37 14 15 33 -10 10 -13 10 -6 3 26 -32 8 -42 -24 -13 -23 20 -44 26 -44
12 0 -5 -5 -10 -11 -10 -6 0 -9 7 -5 15 7 19 2 19 -14 0z m60 -25 c0 -5 -4
-10 -9 -10 -6 0 -13 5 -16 10 -3 6 1 10 9 10 9 0 16 -4 16 -10z"/>
<path d="M3283 3699 c-12 -30 -11 -32 3 -17 9 8 14 23 12 33 -2 12 -7 7 -15
-16z"/>
<path d="M4940 3716 c0 -9 5 -16 10 -16 6 0 10 4 10 9 0 6 -4 13 -10 16 -5 3
-10 -1 -10 -9z"/>
<path d="M2235 3700 c-3 -5 -18 -10 -33 -11 -15 0 -36 -4 -47 -9 -13 -6 -3 -7
30 -4 28 3 65 7 83 7 28 2 30 4 15 15 -20 15 -40 16 -48 2z"/>
<path d="M3020 3698 c0 -9 5 -20 10 -23 13 -8 13 5 0 25 -8 13 -10 13 -10 -2z"/>
<path d="M3150 3686 c7 -7 13 -7 20 0 6 6 3 10 -10 10 -13 0 -16 -4 -10 -10z"/>
<path d="M3974 3685 c26 -20 11 -33 -17 -16 -21 13 -21 12 -5 -4 11 -12 22
-15 35 -10 10 5 22 7 28 6 5 -1 1 7 -9 18 -11 12 -26 21 -35 21 -13 -1 -13 -3
3 -15z"/>
<path d="M4904 3693 c3 -4 -4 -13 -16 -20 -22 -12 -21 -12 15 -13 20 0 37 3
37 6 0 8 -27 34 -36 34 -4 0 -4 -3 0 -7z"/>
<path d="M1946 3682 c-2 -4 4 -8 14 -8 10 0 16 4 14 8 -3 4 -9 8 -14 8 -5 0
-11 -4 -14 -8z"/>
<path d="M2324 3679 c-4 -8 3 -9 24 -4 40 8 50 -10 13 -23 -16 -6 -32 -8 -35
-6 -3 2 -4 1 -1 -3 6 -7 17 -11 49 -15 19 -3 22 7 17 52 -1 14 -58 13 -67 -1z"/>
<path d="M3050 3683 c0 -6 8 -17 18 -24 16 -13 16 -13 2 6 -8 11 -16 22 -17
24 -2 2 -3 0 -3 -6z"/>
<path d="M4976 3675 c-3 -8 -3 -15 0 -15 3 0 12 7 20 15 13 13 13 15 1 15 -8
0 -17 -7 -21 -15z"/>
<path d="M543 3665 c-7 -8 -13 -21 -13 -29 0 -12 5 -14 26 -6 38 15 54 12 54
-10 0 -11 -6 -20 -12 -20 -9 0 -8 -4 2 -10 19 -12 5 -13 -18 -1 -12 6 -24 1
-42 -17 -21 -22 -21 -25 -5 -18 11 5 34 10 50 11 17 2 40 6 53 10 25 8 31 -9
6 -19 -8 -3 -12 -10 -9 -16 3 -5 -1 -10 -10 -10 -9 0 -19 -8 -22 -19 -4 -16
-10 -17 -45 -9 -48 10 -54 8 -28 -15 11 -9 20 -13 20 -8 0 13 33 7 38 -7 6
-18 32 -14 32 4 0 24 32 74 48 74 10 0 10 5 2 20 -6 11 -17 20 -25 20 -9 0
-15 13 -17 38 -3 34 -5 37 -30 34 -16 -2 -28 1 -28 7 0 15 -12 13 -27 -4z"/>
<path d="M2093 3665 c-13 -6 -21 -14 -18 -17 8 -8 55 3 55 13 0 14 -15 16 -37
4z"/>
<path d="M5688 3673 c7 -3 16 -2 19 1 4 3 -2 6 -13 5 -11 0 -14 -3 -6 -6z"/>
<path d="M1979 3643 c-5 -13 -14 -23 -21 -23 -7 -1 -26 -7 -43 -15 -27 -12
-27 -14 -5 -10 14 3 38 8 54 11 17 4 27 3 23 -2 -3 -6 2 -10 11 -11 9 -1 29
-5 45 -9 16 -4 27 -2 27 4 0 5 -16 13 -35 16 -22 5 -33 11 -29 18 4 7 3 8 -4
4 -8 -5 -12 0 -12 13 0 25 25 18 68 -20 19 -17 34 -24 43 -19 7 5 22 4 33 -2
19 -10 20 -9 8 5 -14 17 -9 20 54 32 10 2 21 4 24 6 9 4 25 7 48 8 12 0 22 5
22 10 0 4 -21 5 -47 0 -46 -7 -60 -11 -100 -25 -33 -12 -73 -14 -73 -4 0 6 -6
10 -14 10 -8 0 -16 6 -19 14 -9 23 -48 15 -58 -11z"/>
<path d="M208 3653 c6 -2 18 -2 25 0 6 3 1 5 -13 5 -14 0 -19 -2 -12 -5z"/>
<path d="M315 3649 c-4 -6 -5 -12 -2 -15 2 -3 7 2 10 11 7 17 1 20 -8 4z"/>
<path d="M476 3651 c-4 -5 3 -7 14 -4 23 6 26 13 6 13 -8 0 -17 -4 -20 -9z"/>
<path d="M5850 3651 c0 -5 5 -13 10 -16 6 -3 10 -2 10 4 0 5 -4 13 -10 16 -5
3 -10 2 -10 -4z"/>
<path d="M380 3640 c0 -5 7 -10 15 -10 8 0 15 5 15 10 0 6 -7 10 -15 10 -8 0
-15 -4 -15 -10z"/>
<path d="M3306 3638 c3 -5 10 -6 15 -3 13 9 11 12 -6 12 -8 0 -12 -4 -9 -9z"/>
<path d="M3050 3620 c12 -23 30 -18 29 8 0 14 -2 13 -9 -3 -7 -17 -9 -17 -9
-2 -1 9 -6 17 -11 17 -7 0 -7 -7 0 -20z"/>
<path d="M3741 3624 c0 -11 3 -14 6 -6 3 7 2 16 -1 19 -3 4 -6 -2 -5 -13z"/>
<path d="M4808 3624 c6 -10 24 -28 41 -39 17 -11 31 -28 31 -37 0 -13 8 -18
28 -18 24 1 25 2 10 14 -18 13 -25 32 -9 22 5 -3 11 1 15 9 3 10 -1 15 -14 15
-27 0 -70 21 -64 31 3 5 1 9 -5 9 -5 0 -17 3 -26 7 -15 5 -16 3 -7 -13z"/>
<path d="M5455 3630 c-3 -5 1 -10 10 -10 9 0 13 5 10 10 -3 6 -8 10 -10 10 -2
0 -7 -4 -10 -10z"/>
<path d="M4878 3623 c7 -3 16 -2 19 1 4 3 -2 6 -13 5 -11 0 -14 -3 -6 -6z"/>
<path d="M5030 3610 c0 -5 5 -10 11 -10 5 0 7 5 4 10 -3 6 -8 10 -11 10 -2 0
-4 -4 -4 -10z"/>
<path d="M101 3601 c-8 -6 -9 -11 -3 -15 6 -3 14 -1 17 5 9 14 2 20 -14 10z"/>
<path d="M683 3594 c-9 -25 12 -39 39 -25 22 11 22 11 -4 6 -34 -7 -38 12 -5
25 l22 9 -23 0 c-12 1 -25 -6 -29 -15z"/>
<path d="M4111 3594 c0 -11 3 -14 6 -6 3 7 2 16 -1 19 -3 4 -6 -2 -5 -13z"/>
<path d="M2198 3588 c5 -5 16 -8 23 -6 8 3 3 7 -10 11 -17 4 -21 3 -13 -5z"/>
<path d="M774 3576 c-15 -12 -16 -16 -5 -30 16 -20 45 -21 60 -2 8 10 8 16 -1
23 -27 21 -36 22 -54 9z m49 -17 c7 0 1 -4 -11 -10 -26 -10 -46 -3 -36 12 3 6
13 8 21 5 8 -3 20 -6 26 -7z"/>
<path d="M898 3579 c-25 -14 -22 -37 5 -50 13 -6 27 -20 33 -32 6 -14 16 -21
29 -19 33 6 38 19 5 14 -17 -2 -30 0 -30 6 0 13 36 26 49 18 5 -3 7 3 4 14 -4
14 -64 62 -76 60 -1 0 -10 -5 -19 -11z m57 -29 c34 -22 27 -25 -28 -9 -21 5
-35 14 -32 20 9 14 27 11 60 -11z"/>
<path d="M1865 3570 c3 -16 -2 -18 -33 -14 -31 3 -33 2 -12 -5 l25 -9 -23 -1
c-13 -1 -37 -10 -53 -22 -16 -11 -29 -16 -29 -12 0 18 -52 8 -61 -12 -10 -19
-9 -19 4 -2 13 16 18 16 56 2 53 -18 161 -2 138 21 -4 4 -26 1 -51 -6 -65 -18
-81 -6 -17 13 38 12 58 14 72 6 21 -11 43 -3 34 11 -3 5 9 17 27 26 19 10 28
19 20 22 -7 2 -22 -4 -33 -14 -10 -9 -19 -13 -19 -8 0 5 -5 1 -11 -8 -5 -10
-15 -18 -21 -18 -9 0 -9 3 0 12 16 16 15 25 -2 31 -10 4 -14 0 -11 -13z"/>
<path d="M2195 3550 c14 -15 21 -17 32 -9 7 6 13 16 13 22 0 6 -7 2 -15 -9 -8
-10 -15 -14 -15 -8 0 7 -8 15 -17 18 -15 6 -15 4 2 -14z"/>
<path d="M4935 3560 c3 -5 11 -10 16 -10 6 0 7 5 4 10 -3 6 -11 10 -16 10 -6
0 -7 -4 -4 -10z"/>
<path d="M340 3550 c8 -5 20 -10 25 -10 6 0 3 5 -5 10 -8 5 -19 10 -25 10 -5
0 -3 -5 5 -10z"/>
<path d="M4975 3550 c3 -5 8 -10 11 -10 2 0 4 5 4 10 0 6 -5 10 -11 10 -5 0
-7 -4 -4 -10z"/>
<path d="M5048 3543 c7 -3 16 -2 19 1 4 3 -2 6 -13 5 -11 0 -14 -3 -6 -6z"/>
<path d="M5950 3540 c0 -6 7 -10 15 -10 8 0 15 2 15 4 0 2 -7 6 -15 10 -8 3
-15 1 -15 -4z"/>
<path d="M308 3523 c7 -3 16 -2 19 1 4 3 -2 6 -13 5 -11 0 -14 -3 -6 -6z"/>
<path d="M1096 3521 c-3 -4 6 -6 19 -3 14 2 25 6 25 8 0 8 -39 4 -44 -5z"/>
<path d="M365 3510 c-3 -5 -1 -10 4 -10 6 0 11 5 11 10 0 6 -2 10 -4 10 -3 0
-8 -4 -11 -10z"/>
<path d="M4892 3509 c-14 -6 -12 -8 9 -14 20 -5 30 -17 40 -48 7 -23 21 -57
31 -75 10 -18 18 -38 18 -44 0 -16 50 -59 61 -52 5 3 9 0 9 -5 0 -6 4 -11 9
-11 16 0 71 -60 77 -83 6 -25 48 -77 62 -77 8 0 16 -27 24 -87 2 -19 53 -16
69 4 13 15 11 16 -14 11 -20 -4 -30 0 -37 13 -14 26 -13 29 14 29 14 0 28 5
32 11 8 13 -14 29 -30 23 -6 -2 -33 10 -61 26 -53 31 -47 38 17 18 29 -9 41
-9 50 0 9 9 6 12 -12 14 -46 3 -55 4 -78 12 -30 10 -18 26 21 27 l32 1 -31 8
c-36 8 -94 46 -94 62 0 6 10 8 21 5 13 -4 18 -2 13 3 -5 5 -25 11 -44 14 -61
7 -100 18 -100 27 0 14 38 11 42 -3 3 -8 6 -9 11 -1 4 6 -8 18 -28 27 -42 20
-44 28 -7 44 23 10 24 11 3 7 -27 -4 -61 14 -61 32 0 7 8 13 18 14 13 0 14 2
2 6 -8 4 -20 13 -27 22 -15 21 0 39 35 44 15 2 3 3 -26 3 -29 -1 -60 -4 -70
-7z"/>
<path d="M45 3500 c-3 -5 -1 -10 4 -10 6 0 11 5 11 10 0 6 -2 10 -4 10 -3 0
-8 -4 -11 -10z"/>
<path d="M450 3500 c0 -5 5 -10 10 -10 6 0 10 5 10 10 0 6 -4 10 -10 10 -5 0
-10 -4 -10 -10z"/>
<path d="M1107 3489 c7 -7 15 -10 18 -7 3 3 -2 9 -12 12 -14 6 -15 5 -6 -5z"/>
<path d="M788 3483 c6 -2 18 -2 25 0 6 3 1 5 -13 5 -14 0 -19 -2 -12 -5z"/>
<path d="M4970 3479 c0 -5 6 -10 13 -10 54 -7 77 -6 77 2 0 5 -6 9 -12 10 -7
0 -28 2 -45 3 -18 2 -33 0 -33 -5z"/>
<path d="M1701 3471 c-20 -13 -1 -18 44 -10 22 3 33 7 25 8 -8 1 -24 4 -35 6
-11 3 -26 1 -34 -4z"/>
<path d="M5183 3463 c9 -2 15 -9 12 -14 -4 -5 -1 -9 4 -9 6 0 11 7 11 15 0 9
-9 15 -22 14 -18 -1 -19 -2 -5 -6z"/>
<path d="M793 3453 c9 -2 25 -2 35 0 9 3 1 5 -18 5 -19 0 -27 -2 -17 -5z"/>
<path d="M5726 3443 c-6 -14 -5 -15 5 -6 7 7 10 15 7 18 -3 3 -9 -2 -12 -12z"/>
<path d="M451 3446 c2 -2 22 -6 44 -9 28 -5 34 -4 20 3 -19 8 -73 14 -64 6z"/>
<path d="M548 3443 c7 -3 16 -2 19 1 4 3 -2 6 -13 5 -11 0 -14 -3 -6 -6z"/>
<path d="M1624 3431 c7 -9 11 -23 8 -31 -5 -13 -3 -13 11 -1 13 10 14 17 7 26
-8 10 -6 14 7 18 10 2 3 4 -15 4 -29 0 -31 -2 -18 -16z"/>
<path d="M600 3430 c0 -5 -18 -10 -40 -10 -22 0 -40 -4 -40 -10 0 -10 19 -14
52 -11 23 3 68 -28 68 -45 0 -8 -7 -14 -15 -14 -8 0 -15 -4 -15 -10 0 -5 6
-10 13 -10 6 0 23 -3 37 -7 25 -6 25 -6 7 15 -11 11 -16 25 -13 30 3 5 -4 19
-15 31 -12 12 -18 29 -15 37 3 8 -1 14 -9 14 -8 0 -15 -4 -15 -10z"/>
<path d="M5010 3435 c0 -7 30 -13 34 -7 3 4 -4 9 -15 9 -10 1 -19 0 -19 -2z"/>
<path d="M5133 3420 c-1 -11 2 -20 7 -20 17 0 40 12 40 22 0 5 -4 7 -9 3 -5
-3 -12 -1 -16 5 -10 16 -21 12 -22 -10z"/>
<path d="M1597 3424 c-8 -8 3 -34 15 -34 7 0 6 5 -1 13 -6 8 -8 17 -4 20 3 4
4 7 1 7 -2 0 -7 -3 -11 -6z"/>
<path d="M440 3410 c0 -5 7 -10 16 -10 8 0 12 5 9 10 -3 6 -10 10 -16 10 -5 0
-9 -4 -9 -10z"/>
<path d="M248 3393 c6 -2 18 -2 25 0 6 3 1 5 -13 5 -14 0 -19 -2 -12 -5z"/>
<path d="M400 3390 c-13 -8 -12 -10 3 -10 9 0 17 5 17 10 0 12 -1 12 -20 0z"/>
<path d="M5083 3387 c-22 -10 -31 -27 -15 -27 12 0 48 28 42 33 -3 2 -15 0
-27 -6z"/>
<path d="M5596 3381 c-4 -5 3 -7 14 -4 23 6 26 13 6 13 -8 0 -17 -4 -20 -9z"/>
<path d="M5751 3374 c0 -11 3 -14 6 -6 3 7 2 16 -1 19 -3 4 -6 -2 -5 -13z"/>
<path d="M1340 3345 c-5 -44 6 -68 20 -45 12 19 13 33 1 25 -5 -3 -12 5 -14
17 -4 21 -5 21 -7 3z"/>
<path d="M485 3340 c-3 -5 -1 -10 4 -10 6 0 11 5 11 10 0 6 -2 10 -4 10 -3 0
-8 -4 -11 -10z"/>
<path d="M1284 3325 c-7 -29 -24 -34 -25 -7 0 11 -2 12 -6 4 -3 -7 0 -19 7
-27 15 -18 34 -2 36 31 2 31 -4 31 -12 -1z"/>
<path d="M5648 3343 c12 -2 30 -2 40 0 9 3 -1 5 -23 4 -22 0 -30 -2 -17 -4z"/>
<path d="M330 3330 c0 -5 5 -10 10 -10 6 0 10 5 10 10 0 6 -4 10 -10 10 -5 0
-10 -4 -10 -10z"/>
<path d="M5110 3330 c0 -5 7 -10 15 -10 8 0 15 5 15 10 0 6 -7 10 -15 10 -8 0
-15 -4 -15 -10z"/>
<path d="M5165 3330 c3 -5 10 -10 16 -10 5 0 9 5 9 10 0 6 -7 10 -16 10 -8 0
-12 -4 -9 -10z"/>
<path d="M1310 3315 c0 -8 4 -15 10 -15 5 0 7 7 4 15 -4 8 -8 15 -10 15 -2 0
-4 -7 -4 -15z"/>
<path d="M5635 3320 c3 -5 8 -10 11 -10 2 0 4 5 4 10 0 6 -5 10 -11 10 -5 0
-7 -4 -4 -10z"/>
<path d="M151 3294 c0 -11 3 -14 6 -6 3 7 2 16 -1 19 -3 4 -6 -2 -5 -13z"/>
<path d="M592 3290 c26 -15 96 -22 103 -11 7 13 7 13 -63 16 -30 1 -48 -1 -40
-5z"/>
<path d="M5170 3290 c0 -5 4 -10 9 -10 6 0 13 5 16 10 3 6 -1 10 -9 10 -9 0
-16 -4 -16 -10z"/>
<path d="M500 3282 c0 -5 7 -9 15 -9 8 0 15 4 15 9 0 4 -7 8 -15 8 -8 0 -15
-4 -15 -8z"/>
<path d="M1310 3286 c0 -2 7 -7 16 -10 8 -3 12 -2 9 4 -6 10 -25 14 -25 6z"/>
<path d="M5568 3283 c6 -2 18 -2 25 0 6 3 1 5 -13 5 -14 0 -19 -2 -12 -5z"/>
<path d="M77 3269 c7 -7 15 -10 18 -7 3 3 -2 9 -12 12 -14 6 -15 5 -6 -5z"/>
<path d="M5215 3270 c3 -5 8 -10 11 -10 2 0 4 5 4 10 0 6 -5 10 -11 10 -5 0
-7 -4 -4 -10z"/>
<path d="M710 3256 c0 -20 -39 -46 -70 -46 -33 -1 -12 -12 52 -30 51 -13 182
-5 143 10 -11 4 -30 4 -42 -1 -13 -5 -34 -4 -47 1 -13 5 -27 6 -31 2 -4 -4 -4
12 0 36 4 23 4 42 1 42 -3 0 -6 -6 -6 -14z"/>
<path d="M5247 3263 c-24 -23 8 -30 37 -8 19 14 19 15 -5 15 -14 0 -29 -3 -32
-7z"/>
<path d="M497 3240 c3 -11 7 -20 9 -20 2 0 4 9 4 20 0 11 -4 20 -9 20 -5 0 -7
-9 -4 -20z"/>
<path d="M590 3251 c-24 -7 -24 -7 -4 -13 12 -3 28 -2 35 3 8 5 17 3 22 -4 6
-8 7 -8 4 3 -4 18 -22 21 -57 11z"/>
<path d="M390 3240 c-13 -8 -12 -10 3 -10 9 0 17 5 17 10 0 12 -1 12 -20 0z"/>
<path d="M530 3240 c-13 -8 -12 -10 3 -10 9 0 17 5 17 10 0 12 -1 12 -20 0z"/>
<path d="M1130 3199 c0 -5 5 -7 10 -4 6 3 10 8 10 11 0 2 -4 4 -10 4 -5 0 -10
-5 -10 -11z"/>
<path d="M3328 3186 c-15 -8 -29 -12 -31 -9 -3 3 -11 -5 -17 -17 -12 -23 -6
-55 8 -46 5 3 8 -8 7 -25 -1 -20 7 -40 25 -61 l27 -31 16 23 c9 13 14 27 11
32 -3 5 0 15 6 23 14 16 5 35 -16 35 -8 0 -14 5 -14 10 0 6 -7 10 -16 10 -14
0 -15 -2 -3 -17 10 -11 10 -14 2 -9 -7 4 -13 2 -13 -3 0 -6 -4 -11 -9 -11 -14
0 0 41 16 47 12 5 12 7 2 14 -18 10 -8 19 27 25 27 4 28 3 10 -10 -18 -15 -14
-36 7 -36 16 0 38 -48 26 -56 -17 -10 -9 -33 14 -36 19 -3 17 -6 -15 -20 -43
-19 -51 -38 -13 -30 14 2 22 8 19 13 -3 5 3 9 14 9 20 0 26 26 11 46 -5 6 -7
20 -4 32 2 13 -5 30 -20 44 -12 12 -20 28 -17 36 2 8 -1 18 -9 23 -18 11 -19
11 -51 -5z m-23 -45 c-3 -6 -11 -11 -17 -11 -6 0 -6 6 2 15 14 17 26 13 15 -4z
m29 -86 c10 -7 16 -17 15 -22 -2 -4 -15 2 -28 15 -26 24 -17 30 13 7z"/>
<path d="M918 3178 c5 -5 16 -8 23 -6 8 3 3 7 -10 11 -17 4 -21 3 -13 -5z"/>
<path d="M5680 3176 c0 -2 7 -7 16 -10 8 -3 12 -2 9 4 -6 10 -25 14 -25 6z"/>
<path d="M598 3163 c7 -3 16 -2 19 1 4 3 -2 6 -13 5 -11 0 -14 -3 -6 -6z"/>
<path d="M1138 3163 c7 -3 16 -2 19 1 4 3 -2 6 -13 5 -11 0 -14 -3 -6 -6z"/>
<path d="M5630 3159 c0 -5 5 -7 10 -4 6 3 10 8 10 11 0 2 -4 4 -10 4 -5 0 -10
-5 -10 -11z"/>
<path d="M764 3146 c-23 -6 -50 -18 -60 -27 -11 -9 -26 -19 -34 -22 -10 -4 -7
-6 8 -6 12 -1 22 -5 22 -10 0 -14 -97 -34 -131 -27 -16 3 -29 1 -29 -4 0 -11
26 -14 77 -11 42 3 105 -17 100 -32 -2 -7 -21 -22 -41 -33 -23 -13 -33 -23
-25 -26 11 -4 10 -8 -3 -21 -9 -9 -23 -17 -30 -17 -10 0 -9 -3 2 -10 13 -9 12
-12 -4 -25 -17 -13 -18 -15 -3 -15 22 0 22 -16 1 -24 -16 -6 -16 -8 0 -24 21
-24 20 -35 -3 -27 -11 3 -25 -1 -34 -10 -26 -25 -65 -36 -74 -21 -13 21 -69
30 -76 12 -4 -9 -2 -18 3 -21 6 -4 10 1 10 9 0 14 26 12 40 -3 3 -3 14 -11 25
-17 11 -6 21 -19 23 -28 4 -21 -45 -22 -72 -1 -21 16 -46 20 -46 8 1 -10 84
-63 98 -63 9 0 10 -21 3 -62 0 -4 -9 -9 -19 -12 -13 -4 -18 -15 -16 -35 1 -18
-4 -32 -12 -35 -8 -3 -14 1 -14 9 0 11 -11 15 -37 15 -33 -1 -36 -2 -18 -12
29 -16 31 -18 16 -27 -8 -5 4 -8 29 -8 51 0 80 -23 60 -47 -7 -9 -21 -16 -31
-16 -33 0 -30 -18 5 -31 l34 -12 -19 -30 c-10 -17 -16 -34 -13 -39 3 -4 -2 -8
-10 -8 -18 0 -21 -16 -6 -25 17 -11 11 -23 -17 -33 -16 -6 -22 -11 -15 -11 7
-1 10 -5 7 -11 -3 -5 3 -10 14 -10 24 0 28 -18 6 -26 -8 -4 -12 -10 -9 -15 3
-5 -1 -6 -9 -3 -8 3 -18 1 -22 -5 -4 -7 3 -11 18 -11 14 0 27 -6 30 -13 7 -18
-35 -103 -63 -127 -28 -24 -11 -26 32 -4 22 11 33 13 41 5 8 -8 8 -14 0 -22
-8 -8 -8 -20 -3 -35 6 -15 5 -26 -1 -30 -6 -3 -8 -13 -5 -21 9 -23 -16 -96
-39 -115 -11 -10 -31 -21 -43 -24 -17 -5 -20 -9 -11 -15 7 -4 21 -3 30 2 33
17 49 11 49 -21 0 -23 -6 -33 -25 -42 -14 -6 -25 -18 -25 -27 0 -11 -3 -12 -8
-5 -5 8 -13 4 -25 -11 -10 -15 -13 -26 -7 -30 5 -3 10 0 10 7 1 16 75 52 89
43 6 -3 7 -13 4 -22 -5 -12 -2 -15 10 -10 24 9 63 -34 44 -48 -7 -5 -16 -18
-20 -27 -3 -10 -16 -18 -27 -18 -12 0 -18 -4 -15 -10 3 -5 24 -7 45 -5 30 4
40 2 40 -8 0 -17 -34 -57 -48 -57 -6 0 -13 -4 -16 -9 -4 -5 3 -7 14 -4 12 3
20 0 20 -6 0 -7 5 -9 12 -4 7 4 25 7 40 8 16 0 27 5 25 10 -1 6 -5 9 -9 8 -3
-1 -10 12 -13 30 -4 17 -12 38 -18 46 -6 7 -10 28 -8 47 2 28 -4 40 -33 68
-28 26 -36 41 -34 64 1 16 -4 37 -11 45 -8 11 -9 21 -3 34 27 52 33 74 36 147
4 70 2 79 -14 83 -19 5 -20 29 -3 56 4 6 8 53 9 102 1 61 7 103 19 129 10 24
14 51 11 68 -3 16 -1 37 6 47 9 15 7 24 -11 49 -23 33 -19 55 16 90 15 15 18
78 3 87 -5 3 0 15 11 26 11 11 18 27 15 35 -4 11 7 21 38 34 42 19 43 21 50
76 4 32 15 67 26 82 11 13 20 29 20 34 0 5 9 18 20 30 24 26 26 56 5 64 -11 5
-12 11 -4 25 5 11 8 23 5 27 -7 12 43 38 86 46 42 8 62 27 26 25 -13 -1 -42
-7 -64 -13z m-204 -1676 c0 -5 -7 -10 -15 -10 -8 0 -15 5 -15 10 0 6 7 10 15
10 8 0 15 -4 15 -10z"/>
<path d="M5298 3153 c7 -3 16 -2 19 1 4 3 -2 6 -13 5 -11 0 -14 -3 -6 -6z"/>
<path d="M1080 3133 c0 -22 22 -26 38 -7 16 17 16 17 -1 4 -16 -12 -20 -12
-28 1 -5 9 -9 10 -9 2z"/>
<path d="M5613 3123 c-7 -2 -13 -9 -13 -15 0 -7 4 -7 13 0 6 6 26 12 42 15
l30 4 -30 1 c-16 0 -36 -2 -42 -5z"/>
<path d="M470 3101 c0 -5 5 -13 10 -16 6 -3 10 -2 10 4 0 5 -4 13 -10 16 -5 3
-10 2 -10 -4z"/>
<path d="M5825 3100 c-3 -5 -1 -10 4 -10 6 0 11 5 11 10 0 6 -2 10 -4 10 -3 0
-8 -4 -11 -10z"/>
<path d="M610 3090 c20 -13 33 -13 25 0 -3 6 -14 10 -23 10 -15 0 -15 -2 -2
-10z"/>
<path d="M5328 3083 c7 -3 16 -2 19 1 4 3 -2 6 -13 5 -11 0 -14 -3 -6 -6z"/>
<path d="M5674 3075 c-3 -8 -4 -20 -1 -27 3 -7 6 -3 6 10 1 13 5 20 11 17 6
-3 10 -1 10 4 0 16 -20 13 -26 -4z"/>
<path d="M162 3064 c10 -10 20 -16 22 -13 3 3 -5 11 -17 18 -21 13 -21 12 -5
-5z"/>
<path d="M5970 3060 c0 -5 5 -10 11 -10 5 0 7 5 4 10 -3 6 -8 10 -11 10 -2 0
-4 -4 -4 -10z"/>
<path d="M5328 3043 c31 -6 28 -29 -5 -38 -15 -3 -32 -14 -39 -23 -11 -14 -16
-15 -34 -4 -20 12 -20 11 -11 -7 7 -13 26 -22 56 -27 55 -8 59 -8 62 3 2 5
-11 9 -29 8 -40 0 -48 20 -11 30 31 7 43 21 43 48 0 12 -7 17 -27 16 -24 -2
-25 -2 -5 -6z"/>
<path d="M5688 3023 c7 -3 16 -2 19 1 4 3 -2 6 -13 5 -11 0 -14 -3 -6 -6z"/>
<path d="M195 2989 c-4 -6 -5 -12 -2 -15 2 -3 7 2 10 11 7 17 1 20 -8 4z"/>
<path d="M470 2988 c0 -11 28 -10 35 1 3 6 -4 9 -15 8 -11 -1 -20 -5 -20 -9z"/>
<path d="M560 2990 c0 -5 5 -10 11 -10 5 0 7 5 4 10 -3 6 -8 10 -11 10 -2 0
-4 -4 -4 -10z"/>
<path d="M5360 2991 c0 -5 12 -11 28 -15 15 -3 38 -8 52 -11 20 -5 18 -2 -10
14 -37 21 -70 27 -70 12z"/>
<path d="M5980 2990 c0 -5 5 -10 10 -10 6 0 10 5 10 10 0 6 -4 10 -10 10 -5 0
-10 -4 -10 -10z"/>
<path d="M608 2983 c7 -3 16 -2 19 1 4 3 -2 6 -13 5 -11 0 -14 -3 -6 -6z"/>
<path d="M5778 2963 c7 -3 16 -2 19 1 4 3 -2 6 -13 5 -11 0 -14 -3 -6 -6z"/>
<path d="M5550 2950 c-8 -5 -12 -12 -9 -15 4 -3 12 1 19 10 14 17 11 19 -10 5z"/>
<path d="M5375 2940 c3 -5 11 -10 16 -10 6 0 7 5 4 10 -3 6 -11 10 -16 10 -6
0 -7 -4 -4 -10z"/>
<path d="M240 2932 c0 -5 7 -9 15 -9 8 0 12 4 9 9 -3 4 -9 8 -15 8 -5 0 -9 -4
-9 -8z"/>
<path d="M493 2932 c-6 -4 7 -8 30 -8 30 -1 36 1 22 7 -26 10 -37 10 -52 1z"/>
<path d="M5250 2930 c0 -17 39 -50 59 -50 12 0 21 -8 23 -21 2 -12 17 -29 33
-38 17 -9 38 -23 46 -31 15 -13 14 -17 -3 -41 -25 -34 -17 -63 23 -81 21 -9
32 -23 40 -51 6 -24 27 -55 55 -81 24 -23 44 -46 44 -51 0 -5 10 -30 22 -57
18 -41 26 -48 50 -48 15 0 28 3 28 6 0 9 -23 29 -50 41 l-25 12 23 7 c27 8 30
24 2 17 -25 -7 -27 15 -2 33 14 11 14 13 2 14 -8 0 -34 13 -56 28 -35 24 -40
31 -32 47 9 16 7 17 -16 13 -15 -3 -29 -2 -31 3 -8 11 25 40 37 33 7 -4 8 -2
4 4 -4 7 -16 12 -28 12 -16 0 -18 3 -9 13 14 17 4 27 -26 27 -14 0 -33 5 -44
11 -20 10 -19 11 5 30 26 21 56 25 56 8 0 -5 5 -7 10 -4 6 4 17 2 25 -5 10 -8
15 -8 20 0 9 14 5 18 -25 23 -59 11 -70 18 -58 37 7 10 21 17 35 15 14 -1 23
3 23 12 0 11 -10 13 -45 7 -28 -4 -45 -2 -45 4 0 5 -16 13 -36 17 -29 5 -35
10 -31 25 7 26 -17 43 -52 38 -19 -3 -27 0 -24 8 2 6 -3 14 -11 17 -9 4 -16 2
-16 -3z m380 -525 c11 -13 10 -14 -4 -9 -9 3 -16 10 -16 15 0 13 6 11 20 -6z"/>
<path d="M5760 2924 c0 -8 5 -12 10 -9 6 4 8 11 5 16 -9 14 -15 11 -15 -7z"/>
<path d="M598 2923 c6 -2 18 -2 25 0 6 3 1 5 -13 5 -14 0 -19 -2 -12 -5z"/>
<path d="M5490 2919 c0 -5 5 -7 10 -4 6 3 10 8 10 11 0 2 -4 4 -10 4 -5 0 -10
-5 -10 -11z"/>
<path d="M5638 2913 c7 -3 16 -2 19 1 4 3 -2 6 -13 5 -11 0 -14 -3 -6 -6z"/>
<path d="M480 2898 c0 -10 71 -10 87 0 8 5 -9 8 -37 8 -28 0 -50 -3 -50 -8z"/>
<path d="M408 2893 c6 -2 18 -2 25 0 6 3 1 5 -13 5 -14 0 -19 -2 -12 -5z"/>
<path d="M160 2880 c-24 -8 -23 -8 8 -9 20 -1 31 3 27 9 -3 6 -7 10 -8 9 -1
-1 -13 -5 -27 -9z"/>
<path d="M5440 2880 c0 -5 5 -10 11 -10 5 0 7 5 4 10 -3 6 -8 10 -11 10 -2 0
-4 -4 -4 -10z"/>
<path d="M5600 2880 c0 -5 5 -10 10 -10 6 0 10 5 10 10 0 6 -4 10 -10 10 -5 0
-10 -4 -10 -10z"/>
<path d="M508 2863 c6 -2 18 -2 25 0 6 3 1 5 -13 5 -14 0 -19 -2 -12 -5z"/>
<path d="M5516 2855 c4 -8 8 -15 10 -15 2 0 4 7 4 15 0 8 -4 15 -10 15 -5 0
-7 -7 -4 -15z"/>
<path d="M5898 2853 c6 -2 18 -2 25 0 6 3 1 5 -13 5 -14 0 -19 -2 -12 -5z"/>
<path d="M175 2810 c3 -5 8 -10 11 -10 2 0 4 5 4 10 0 6 -5 10 -11 10 -5 0 -7
-4 -4 -10z"/>
<path d="M232 2800 c0 -14 2 -19 5 -12 2 6 2 18 0 25 -3 6 -5 1 -5 -13z"/>
<path d="M335 2810 c-4 -6 3 -10 14 -10 25 0 27 6 6 13 -8 4 -17 2 -20 -3z"/>
<path d="M477 2813 c-4 -3 -7 -11 -7 -17 0 -6 5 -5 12 2 6 6 9 14 7 17 -3 3
-9 2 -12 -2z"/>
<path d="M518 2813 c7 -3 16 -2 19 1 4 3 -2 6 -13 5 -11 0 -14 -3 -6 -6z"/>
<path d="M5525 2810 c3 -5 15 -10 26 -10 10 0 19 5 19 10 0 6 -12 10 -26 10
-14 0 -23 -4 -19 -10z"/>
<path d="M395 2790 c3 -5 10 -10 16 -10 5 0 9 5 9 10 0 6 -7 10 -16 10 -8 0
-12 -4 -9 -10z"/>
<path d="M70 2769 c0 -5 5 -7 10 -4 6 3 10 8 10 11 0 2 -4 4 -10 4 -5 0 -10
-5 -10 -11z"/>
<path d="M150 2771 c0 -5 5 -13 10 -16 6 -3 10 -2 10 4 0 5 -4 13 -10 16 -5 3
-10 2 -10 -4z"/>
<path d="M5340 2770 c-23 -8 -23 -8 8 -9 17 -1 32 -6 32 -12 0 -8 -12 -10 -36
-6 -30 5 -34 4 -24 -8 16 -19 31 -19 56 -1 17 13 17 16 4 29 -10 9 -23 12 -40
7z"/>
<path d="M5553 2773 c9 -2 25 -2 35 0 9 3 1 5 -18 5 -19 0 -27 -2 -17 -5z"/>
<path d="M373 2743 c16 -3 25 -9 21 -15 -4 -7 -2 -8 5 -4 18 12 2 26 -27 25
l-27 -2 28 -4z"/>
<path d="M5948 2743 c7 -3 16 -2 19 1 4 3 -2 6 -13 5 -11 0 -14 -3 -6 -6z"/>
<path d="M287 2729 c8 -8 16 -8 30 0 16 9 14 10 -11 11 -22 0 -27 -3 -19 -11z"/>
<path d="M5725 2730 c-3 -5 -1 -10 4 -10 6 0 11 5 11 10 0 6 -2 10 -4 10 -3 0
-8 -4 -11 -10z"/>
<path d="M5550 2710 c0 -5 5 -10 11 -10 5 0 7 5 4 10 -3 6 -8 10 -11 10 -2 0
-4 -4 -4 -10z"/>
<path d="M340 2690 c0 -5 5 -10 10 -10 6 0 10 5 10 10 0 6 -4 10 -10 10 -5 0
-10 -4 -10 -10z"/>
<path d="M5518 2693 c7 -3 16 -2 19 1 4 3 -2 6 -13 5 -11 0 -14 -3 -6 -6z"/>
<path d="M395 2680 c3 -5 11 -10 16 -10 6 0 7 5 4 10 -3 6 -11 10 -16 10 -6 0
-7 -4 -4 -10z"/>
<path d="M5945 2680 c3 -5 11 -10 16 -10 6 0 7 5 4 10 -3 6 -11 10 -16 10 -6
0 -7 -4 -4 -10z"/>
<path d="M75 2670 c-3 -6 1 -7 9 -4 18 7 21 14 7 14 -6 0 -13 -4 -16 -10z"/>
<path d="M125 2661 l-40 -7 43 -5 c30 -3 42 -1 42 8 0 7 -1 12 -2 12 -2 -1
-21 -5 -43 -8z"/>
<path d="M5790 2660 c-12 -8 -9 -10 13 -10 16 0 26 4 22 10 -8 12 -16 12 -35
0z"/>
<path d="M389 2641 c9 -6 10 -10 2 -14 -8 -4 -8 -5 1 -3 20 4 21 26 1 26 -14
0 -15 -2 -4 -9z"/>
<path d="M434 2635 c-7 -17 3 -35 18 -35 7 0 6 5 -2 15 -6 8 -9 19 -5 25 3 5
4 10 0 10 -3 0 -8 -7 -11 -15z"/>
<path d="M5979 2642 c-14 -6 -14 -9 -4 -19 10 -9 14 -8 18 8 3 10 4 19 4 18
-1 0 -9 -3 -18 -7z"/>
<path d="M5547 2633 c-11 -10 -8 -25 3 -18 6 3 10 1 10 -4 0 -17 69 -13 87 4
13 14 10 15 -27 10 -24 -3 -48 -1 -55 5 -6 5 -15 7 -18 3z"/>
<path d="M5675 2580 c3 -5 8 -10 11 -10 2 0 4 5 4 10 0 6 -5 10 -11 10 -5 0
-7 -4 -4 -10z"/>
<path d="M378 2563 c7 -3 16 -2 19 1 4 3 -2 6 -13 5 -11 0 -14 -3 -6 -6z"/>
<path d="M5808 2563 c6 -2 18 -2 25 0 6 3 1 5 -13 5 -14 0 -19 -2 -12 -5z"/>
<path d="M135 2550 c-3 -5 -1 -10 4 -10 6 0 11 5 11 10 0 6 -2 10 -4 10 -3 0
-8 -4 -11 -10z"/>
<path d="M308 2543 c7 -3 16 -2 19 1 4 3 -2 6 -13 5 -11 0 -14 -3 -6 -6z"/>
<path d="M5646 2512 c-9 -15 17 -21 55 -12 30 7 31 8 7 9 -14 1 -33 4 -41 7
-8 3 -18 1 -21 -4z"/>
<path d="M308 2503 c7 -3 16 -2 19 1 4 3 -2 6 -13 5 -11 0 -14 -3 -6 -6z"/>
<path d="M352 2498 c2 -6 10 -14 16 -16 7 -2 10 2 6 12 -7 18 -28 22 -22 4z"/>
<path d="M235 2489 c-4 -6 -5 -12 -2 -15 2 -3 7 2 10 11 7 17 1 20 -8 4z"/>
<path d="M260 2490 c0 -5 5 -10 10 -10 6 0 10 5 10 10 0 6 -4 10 -10 10 -5 0
-10 -4 -10 -10z"/>
<path d="M415 2450 c3 -5 8 -10 11 -10 2 0 4 5 4 10 0 6 -5 10 -11 10 -5 0 -7
-4 -4 -10z"/>
<path d="M5880 2450 c0 -5 7 -10 16 -10 8 0 12 5 9 10 -3 6 -10 10 -16 10 -5
0 -9 -4 -9 -10z"/>
<path d="M380 2436 c0 -2 7 -7 16 -10 8 -3 12 -2 9 4 -6 10 -25 14 -25 6z"/>
<path d="M5670 2420 c-13 -8 -12 -10 3 -10 9 0 17 5 17 10 0 12 -1 12 -20 0z"/>
<path d="M5840 2404 c0 -15 6 -16 35 -5 17 7 17 8 -8 13 -19 4 -27 1 -27 -8z"/>
<path d="M5780 2400 c0 -13 11 -13 30 0 12 8 11 10 -7 10 -13 0 -23 -4 -23
-10z"/>
<path d="M5718 2393 c6 -2 18 -2 25 0 6 3 1 5 -13 5 -14 0 -19 -2 -12 -5z"/>
<path d="M5680 2380 c0 -5 5 -10 10 -10 6 0 10 5 10 10 0 6 -4 10 -10 10 -5 0
-10 -4 -10 -10z"/>
<path d="M5785 2370 c3 -5 16 -10 28 -9 21 0 21 1 2 9 -28 12 -37 12 -30 0z"/>
<path d="M5960 2371 c0 -6 5 -13 10 -16 6 -3 10 1 10 9 0 9 -4 16 -10 16 -5 0
-10 -4 -10 -9z"/>
<path d="M5633 2353 c9 -11 17 -28 17 -37 0 -10 13 -38 30 -62 16 -24 27 -51
24 -59 -7 -18 12 -20 19 -2 4 9 8 9 14 1 15 -21 67 -26 99 -9 l29 15 -52 0
c-30 0 -53 5 -53 10 0 6 -10 15 -22 20 -19 8 -17 9 15 6 21 -2 37 1 37 6 0 7
-18 9 -45 6 -38 -5 -45 -3 -45 12 0 10 -4 20 -10 22 -5 2 -11 14 -12 28 -2 20
1 24 16 22 10 -2 22 2 26 8 4 6 17 12 28 13 12 1 22 5 22 9 0 12 -38 9 -46 -3
-7 -11 -50 -8 -89 7 -19 7 -19 7 -2 -13z"/>
<path d="M431 2344 c0 -11 3 -14 6 -6 3 7 2 16 -1 19 -3 4 -6 -2 -5 -13z"/>
<path d="M380 2339 c0 -6 6 -9 14 -6 8 3 17 1 20 -6 2 -7 5 -4 5 6 1 11 -6 17
-19 17 -11 0 -20 -5 -20 -11z"/>
<path d="M5805 2330 l-30 -8 28 -1 c15 0 30 -1 34 -2 4 0 9 4 11 10 4 12 1 12
-43 1z"/>
<path d="M5950 2310 c-12 -8 -10 -10 8 -10 13 0 20 4 17 10 -7 12 -6 12 -25 0z"/>
<path d="M5730 2291 c0 -5 11 -12 25 -15 28 -7 75 2 75 14 0 12 -43 8 -53 -5
-6 -7 -10 -6 -14 3 -5 14 -33 17 -33 3z"/>
<path d="M5890 2276 c0 -3 9 -10 20 -16 11 -6 20 -8 20 -6 0 3 -9 10 -20 16
-11 6 -20 8 -20 6z"/>
<path d="M4620 2246 c0 -9 -4 -16 -10 -16 -5 0 -10 -7 -10 -16 0 -8 -4 -13 -9
-10 -5 3 -12 -1 -15 -10 -10 -26 -7 -26 17 -2 39 39 49 56 37 63 -5 3 -10 -1
-10 -9z"/>
<path d="M4660 2250 c-8 -5 -12 -11 -9 -14 2 -3 11 -1 19 4 8 5 12 11 9 14 -2
3 -11 1 -19 -4z"/>
<path d="M5978 2253 c7 -3 16 -2 19 1 4 3 -2 6 -13 5 -11 0 -14 -3 -6 -6z"/>
<path d="M331 2224 c0 -11 3 -14 6 -6 3 7 2 16 -1 19 -3 4 -6 -2 -5 -13z"/>
<path d="M5940 2220 c0 -12 28 -21 35 -11 2 5 -4 11 -15 14 -11 3 -20 2 -20
-3z"/>
<path d="M4626 2197 c-3 -13 -16 -29 -28 -36 l-23 -12 24 5 c14 3 32 0 40 -7
14 -10 14 -10 4 3 -13 18 -6 33 20 43 9 3 17 12 17 19 0 9 -3 9 -12 0 -15 -15
-32 -16 -23 -2 3 6 2 10 -3 10 -6 0 -12 -11 -16 -23z"/>
<path d="M5992 2190 c0 -14 2 -19 5 -12 2 6 2 18 0 25 -3 6 -5 1 -5 -13z"/>
<path d="M5888 2193 c6 -2 18 -2 25 0 6 3 1 5 -13 5 -14 0 -19 -2 -12 -5z"/>
<path d="M5700 2162 c0 -2 12 -19 28 -37 61 -72 64 -78 60 -106 -3 -15 -1 -26
4 -23 4 3 11 -2 14 -10 3 -9 11 -16 18 -16 6 0 28 -28 48 -62 27 -45 34 -64
25 -70 -7 -5 1 -8 20 -8 17 0 40 -3 50 -7 16 -6 16 -5 4 10 -7 9 -22 17 -32
17 -11 0 -19 5 -19 10 0 6 5 10 11 10 5 0 -7 16 -28 36 -24 23 -33 38 -25 41
17 7 15 20 -5 27 -39 14 -58 32 -61 59 -4 30 11 35 34 12 9 -8 27 -15 42 -14
l27 1 -30 12 c-69 29 -115 51 -115 58 0 3 8 9 18 11 11 3 6 7 -16 12 -21 5
-31 12 -28 20 3 8 -5 15 -20 18 -13 2 -24 2 -24 -1z"/>
<path d="M4671 2146 c-10 -12 -8 -13 8 -9 12 3 21 9 21 14 0 14 -16 11 -29 -5z"/>
<path d="M5848 2153 c7 -3 16 -2 19 1 4 3 -2 6 -13 5 -11 0 -14 -3 -6 -6z"/>
<path d="M5910 2140 c-9 -6 -10 -10 -3 -10 6 0 15 5 18 10 8 12 4 12 -15 0z"/>
<path d="M248 2133 c7 -3 16 -2 19 1 4 3 -2 6 -13 5 -11 0 -14 -3 -6 -6z"/>
<path d="M4702 2124 c-7 -8 -8 -14 -3 -14 10 0 25 19 20 25 -2 1 -10 -3 -17
-11z"/>
<path d="M2866 2123 c5 -5 12 -12 16 -18 4 -6 8 -2 8 8 0 9 -7 17 -17 17 -9 0
-12 -3 -7 -7z"/>
<path d="M346 2111 c-4 -5 -2 -12 3 -15 5 -4 12 -2 15 3 4 5 2 12 -3 15 -5 4
-12 2 -15 -3z"/>
<path d="M5810 2110 c0 -6 4 -9 9 -6 5 3 25 -1 45 -9 44 -19 70 -19 36 -1 -38
21 -90 30 -90 16z"/>
<path d="M2800 2095 c-6 -8 -9 -19 -5 -25 8 -14 55 -13 55 1 0 6 7 9 15 5 20
-7 19 4 -2 20 -24 18 -48 17 -63 -1z m40 -10 c-13 -16 -40 -20 -40 -7 0 14 12
22 33 22 16 0 17 -3 7 -15z"/>
<path d="M267 2086 c-4 -10 -1 -13 9 -9 7 3 14 9 14 14 0 14 -17 10 -23 -5z"/>
<path d="M352 2070 c-19 -4 -39 -13 -45 -20 -9 -10 -8 -12 6 -7 12 5 21 0 28
-16 8 -19 9 -18 4 7 -6 27 -5 28 23 23 21 -4 29 -2 29 9 0 8 -3 14 -6 13 -3
-1 -21 -5 -39 -9z"/>
<path d="M225 2050 c-13 -6 -15 -9 -5 -9 8 0 22 4 30 9 18 12 2 12 -25 0z"/>
<path d="M5928 2033 c7 -3 16 -2 19 1 4 3 -2 6 -13 5 -11 0 -14 -3 -6 -6z"/>
<path d="M208 2003 c6 -2 18 -2 25 0 6 3 1 5 -13 5 -14 0 -19 -2 -12 -5z"/>
<path d="M288 2003 c7 -3 16 -2 19 1 4 3 -2 6 -13 5 -11 0 -14 -3 -6 -6z"/>
<path d="M324 2002 c4 -7 2 -12 -4 -12 -6 0 -8 -4 -5 -10 3 -5 10 -10 16 -10
13 0 11 27 -3 36 -7 4 -8 3 -4 -4z"/>
<path d="M5885 2000 c28 -12 37 -12 30 0 -3 6 -16 10 -28 9 -21 0 -21 -1 -2
-9z"/>
<path d="M31 1984 c0 -11 3 -14 6 -6 3 7 2 16 -1 19 -3 4 -6 -2 -5 -13z"/>
<path d="M5933 1975 c0 -8 4 -12 9 -9 5 3 6 10 3 15 -9 13 -12 11 -12 -6z"/>
<path d="M370 1971 c0 -6 -7 -11 -15 -11 -8 0 -15 -4 -15 -10 0 -14 11 -12 33
4 12 9 14 16 8 21 -6 3 -11 1 -11 -4z"/>
<path d="M220 1959 c0 -5 5 -7 10 -4 6 3 10 8 10 11 0 2 -4 4 -10 4 -5 0 -10
-5 -10 -11z"/>
<path d="M5955 1960 c-4 -6 5 -10 19 -10 14 0 26 5 26 10 0 6 -9 10 -19 10
-11 0 -23 -4 -26 -10z"/>
<path d="M4654 1938 l-19 -23 25 20 c14 11 27 21 29 22 2 2 0 3 -6 3 -5 0 -18
-10 -29 -22z"/>
<path d="M5930 1930 c0 -12 8 -12 35 0 18 8 17 9 -7 9 -16 1 -28 -3 -28 -9z"/>
<path d="M340 1919 c0 -5 5 -7 10 -4 6 3 10 8 10 11 0 2 -4 4 -10 4 -5 0 -10
-5 -10 -11z"/>
<path d="M4680 1920 c-8 -5 -11 -12 -7 -16 4 -4 13 -2 19 4 15 15 7 24 -12 12z"/>
<path d="M4731 1912 c-8 -14 -5 -18 12 -19 17 -2 19 0 7 7 -13 9 -13 11 0 20
9 6 11 10 3 10 -7 0 -17 -8 -22 -18z"/>
<path d="M316 1876 c4 -18 1 -25 -13 -29 -13 -3 -11 -5 8 -6 23 -1 25 2 21 29
-2 17 -8 30 -13 30 -5 0 -7 -11 -3 -24z"/>
<path d="M5966 1865 c25 -19 40 -19 24 0 -7 8 -20 15 -28 15 -13 0 -12 -3 4
-15z"/>
<path d="M4699 1833 c-13 -15 -12 -15 11 -3 34 17 36 20 18 20 -9 0 -22 -7
-29 -17z"/>
<path d="M4762 1818 c-7 -7 -12 -19 -11 -27 0 -10 4 -7 10 7 5 13 13 20 19 17
7 -4 6 -14 -1 -28 -11 -21 -11 -21 7 -4 16 15 17 19 3 32 -12 12 -17 13 -27 3z"/>
<path d="M4705 1810 c-30 -6 -30 -6 -5 -13 13 -3 29 -2 34 3 14 14 5 17 -29
10z"/>
<path d="M315 1803 c11 -3 23 -9 26 -14 3 -5 14 -2 25 6 18 13 16 14 -26 14
-25 -1 -36 -4 -25 -6z"/>
<path d="M3540 1795 c-8 -9 -21 -13 -32 -9 -20 6 -82 -51 -72 -67 3 -5 1 -9
-4 -9 -6 0 -12 6 -15 14 -9 22 -58 12 -82 -18 -11 -14 -26 -26 -33 -26 -7 0
-12 -4 -12 -8 0 -25 30 -104 49 -128 11 -15 21 -36 21 -48 0 -29 -27 -66 -49
-66 -19 0 -41 38 -41 71 0 16 -5 19 -19 14 -21 -6 -46 25 -38 48 2 7 -2 17 -9
22 -20 17 1 52 46 75 22 11 40 25 40 30 0 16 -16 12 -77 -20 -32 -17 -78 -33
-103 -36 -25 -3 -59 -14 -76 -23 -19 -11 -42 -16 -62 -13 -18 2 -38 0 -45 -6
-6 -5 -29 -12 -49 -16 -21 -4 -38 -11 -38 -17 0 -6 -6 -6 -19 0 -10 6 -21 8
-23 5 -3 -2 -16 -7 -28 -9 -13 -2 -30 -11 -39 -19 -10 -9 -26 -13 -39 -9 -25
6 -55 -14 -45 -31 3 -6 -3 -3 -14 7 -34 30 -39 18 -5 -13 39 -35 47 -37 49
-10 1 11 -2 20 -8 20 -5 0 -9 5 -9 10 0 6 7 10 15 10 8 0 15 -3 15 -7 0 -5 13
-17 29 -28 16 -10 27 -23 24 -28 -2 -4 1 -14 7 -22 6 -8 9 -19 5 -25 -6 -10
34 -30 63 -30 11 0 4 8 -17 21 -18 11 -30 23 -27 26 3 4 0 16 -7 27 -8 12 -17
33 -21 49 -5 22 -3 27 11 27 10 0 27 3 38 5 15 4 25 -2 38 -26 9 -17 14 -36
10 -41 -3 -7 -1 -8 5 -4 7 4 12 2 12 -4 0 -6 10 -15 23 -20 17 -7 18 -9 5 -9
-18 -1 -23 -12 -11 -24 3 -4 13 3 21 14 15 22 12 28 -23 43 -6 3 -3 9 5 15 13
10 13 11 0 11 -8 0 -20 11 -27 25 -10 24 -9 25 30 35 23 6 55 15 71 21 16 5
30 8 32 6 1 -1 14 -36 28 -77 14 -41 29 -73 33 -70 4 3 7 10 6 15 -1 6 -9 39
-17 75 -8 36 -14 65 -13 66 5 3 138 34 147 34 5 0 10 -11 10 -24 0 -12 5 -37
11 -55 10 -27 8 -35 -7 -53 l-19 -21 32 17 c50 25 55 22 68 -45 2 -12 7 -24
10 -27 8 -9 -37 -52 -54 -52 -17 1 -61 62 -61 85 0 7 -7 15 -15 19 -8 3 -15 1
-15 -3 0 -5 4 -11 9 -13 6 -1 13 -19 16 -38 3 -19 11 -38 18 -42 8 -5 7 -9 -5
-13 -9 -4 -18 -15 -21 -26 -3 -11 -14 -19 -26 -19 -25 0 -29 20 -3 21 12 0 11
3 -6 10 -13 5 -29 22 -35 39 -8 20 -18 30 -32 30 -12 0 -26 5 -33 12 -8 8 -12
8 -12 1 0 -6 14 -16 30 -22 26 -9 30 -15 30 -49 0 -31 -5 -41 -24 -50 -24 -11
-46 0 -46 23 0 6 -7 20 -16 31 -15 18 -15 18 -11 -8 5 -34 -13 -61 -34 -53
-21 8 -45 53 -41 77 2 10 -4 21 -13 24 -23 9 -28 -1 -14 -24 16 -26 4 -72 -20
-72 -23 0 -37 16 -47 54 l-7 29 -18 -22 c-20 -24 -53 -22 -43 2 6 18 -35 89
-47 81 -12 -7 -12 -34 0 -34 9 0 22 -28 27 -58 5 -27 26 -42 50 -36 19 5 29 0
45 -20 22 -28 48 -33 67 -14 9 9 18 8 37 -2 20 -11 33 -11 56 -3 17 7 31 7 35
2 10 -16 39 -9 66 16 21 19 27 21 32 10 9 -24 45 -17 72 12 18 19 34 27 53 25
19 -2 34 5 53 27 15 16 24 32 20 36 -3 3 1 3 10 0 20 -8 62 27 78 66 8 17 20
29 31 29 29 0 72 49 66 76 -3 16 1 25 14 29 10 3 27 25 39 49 11 24 30 54 40
66 23 26 26 60 8 78 -16 16 -23 15 -38 -3z m30 -27 c0 -28 -10 -42 -32 -51
-11 -4 -18 -17 -18 -31 0 -26 -23 -56 -44 -56 -7 0 -20 8 -30 18 -15 18 -15
21 4 45 11 14 20 31 20 39 0 15 19 38 32 38 4 0 8 -9 8 -20 0 -30 20 -24 31
10 13 35 29 40 29 8z m-168 -62 c6 4 9 -15 6 -55 -3 -58 3 -78 16 -46 9 24 32
7 34 -25 2 -20 -4 -33 -19 -44 -24 -16 -49 -11 -49 10 0 8 -7 14 -15 14 -8 0
-24 9 -35 20 -11 11 -15 20 -10 20 7 0 7 6 1 19 -8 15 -4 29 22 67 23 35 33
44 35 31 2 -9 8 -14 14 -11z"/>
<path d="M5904 1803 c11 -3 30 -15 44 -28 19 -18 23 -29 18 -49 -9 -35 0 -33
19 4 10 20 12 30 4 30 -6 0 -9 9 -6 19 3 15 -2 20 -25 25 -17 3 -40 5 -52 5
-19 -1 -19 -2 -2 -6z"/>
<path d="M45 1761 c-3 -5 -1 -12 5 -16 5 -3 10 1 10 9 0 18 -6 21 -15 7z"/>
<path d="M2993 1757 c-4 -7 -21 -18 -36 -25 -32 -14 -44 -38 -30 -61 12 -19
113 -31 160 -19 29 8 63 40 63 60 0 4 -11 14 -24 23 -21 14 -28 14 -80 -6 -36
-14 -55 -27 -52 -35 5 -13 -38 -29 -54 -19 -12 8 -1 35 15 35 7 0 24 9 38 20
14 11 36 20 49 21 12 0 32 4 43 9 15 6 6 9 -32 9 -32 1 -55 -4 -60 -12z m127
-52 c0 -8 -17 -19 -42 -25 -24 -6 -49 -13 -55 -15 -15 -5 -15 -3 -7 19 3 9 14
16 24 16 11 0 22 5 25 10 10 16 55 12 55 -5z"/>
<path d="M156 1735 c-9 -26 -7 -32 5 -12 6 10 9 21 6 23 -2 3 -7 -2 -11 -11z"/>
<path d="M309 1733 c-12 -16 -12 -17 1 -7 8 6 22 14 30 17 13 5 12 6 -1 6 -9
1 -23 -7 -30 -16z"/>
<path d="M330 1717 c-14 -6 -27 -14 -30 -17 -3 -4 -14 -10 -24 -13 -10 -4 -16
-10 -13 -13 3 -3 15 -1 26 5 11 7 31 9 45 5 13 -3 27 -1 30 4 4 6 -2 8 -14 5
-30 -8 -24 14 8 25 15 6 20 10 12 11 -8 0 -26 -6 -40 -12z"/>
<path d="M4741 1714 c0 -11 3 -14 6 -6 3 7 2 16 -1 19 -3 4 -6 -2 -5 -13z"/>
<path d="M230 1701 c0 -6 4 -13 10 -16 6 -3 7 1 4 9 -7 18 -14 21 -14 7z"/>
<path d="M5903 1703 c-27 -10 -11 -19 37 -21 28 -1 50 2 50 7 0 6 -8 9 -17 9
-10 -1 -27 1 -38 4 -11 4 -26 4 -32 1z"/>
<path d="M4841 1654 c0 -11 3 -14 6 -6 3 7 2 16 -1 19 -3 4 -6 -2 -5 -13z"/>
<path d="M5940 1660 c-30 -3 -50 -8 -44 -12 13 -8 92 -3 101 6 11 10 0 11 -57
6z"/>
<path d="M130 1650 c0 -5 5 -10 10 -10 6 0 10 5 10 10 0 6 -4 10 -10 10 -5 0
-10 -4 -10 -10z"/>
<path d="M194 1635 c20 -12 31 -14 39 -6 8 8 7 11 -3 11 -8 0 -26 3 -40 6 -24
5 -24 4 4 -11z"/>
<path d="M95 1620 c3 -5 8 -10 11 -10 2 0 4 5 4 10 0 6 -5 10 -11 10 -5 0 -7
-4 -4 -10z"/>
<path d="M315 1620 c-3 -5 -1 -10 4 -10 6 0 11 5 11 10 0 6 -2 10 -4 10 -3 0
-8 -4 -11 -10z"/>
<path d="M170 1600 c0 -5 4 -10 9 -10 6 0 13 5 16 10 3 6 -1 10 -9 10 -9 0
-16 -4 -16 -10z"/>
<path d="M400 1580 c0 -5 4 -10 9 -10 6 0 13 5 16 10 3 6 -1 10 -9 10 -9 0
-16 -4 -16 -10z"/>
<path d="M314 1569 c-3 -6 -1 -16 6 -22 10 -9 12 -8 7 5 -3 9 -1 19 6 22 9 3
9 5 0 5 -6 1 -15 -4 -19 -10z"/>
<path d="M173 1563 c9 -2 23 -2 30 0 6 3 -1 5 -18 5 -16 0 -22 -2 -12 -5z"/>
<path d="M380 1550 c0 -5 5 -10 10 -10 6 0 10 5 10 10 0 6 -4 10 -10 10 -5 0
-10 -4 -10 -10z"/>
<path d="M3303 1525 c0 -8 4 -15 9 -15 4 0 8 4 8 9 0 6 -4 12 -8 15 -5 3 -9
-1 -9 -9z"/>
<path d="M80 1511 c0 -5 15 -9 34 -8 19 0 33 5 30 9 -7 11 -64 10 -64 -1z"/>
<path d="M3124 1504 c-18 -14 -18 -15 4 -4 12 6 22 13 22 15 0 8 -5 6 -26 -11z"/>
<path d="M320 1499 c0 -5 5 -7 10 -4 6 3 10 8 10 11 0 2 -4 4 -10 4 -5 0 -10
-5 -10 -11z"/>
<path d="M360 1506 c0 -2 11 -6 25 -8 13 -3 22 -1 19 3 -5 9 -44 13 -44 5z"/>
<path d="M3156 1493 c-6 -14 -5 -15 5 -6 7 7 10 15 7 18 -3 3 -9 -2 -12 -12z"/>
<path d="M3306 1488 c3 -5 10 -6 15 -3 13 9 11 12 -6 12 -8 0 -12 -4 -9 -9z"/>
<path d="M78 1478 c6 -6 18 -8 28 -6 14 3 12 5 -9 10 -19 3 -25 2 -19 -4z"/>
<path d="M2590 1480 c0 -6 8 -14 18 -17 9 -4 25 -16 34 -28 17 -19 25 -11 10
10 -13 18 -62 46 -62 35z"/>
<path d="M345 1470 c-3 -5 1 -10 10 -10 9 0 13 5 10 10 -3 6 -8 10 -10 10 -2
0 -7 -4 -10 -10z"/>
<path d="M393 1456 c0 -7 6 -13 14 -13 7 0 13 4 13 8 0 4 -6 9 -13 12 -8 3
-14 0 -14 -7z"/>
<path d="M2966 1455 c-3 -8 -1 -15 4 -15 6 0 10 7 10 15 0 8 -2 15 -4 15 -2 0
-6 -7 -10 -15z"/>
<path d="M3095 1458 c-28 -15 -28 -15 -21 -27 4 -6 15 -2 27 10 24 24 22 32
-6 17z"/>
<path d="M45 1450 c-3 -5 -1 -10 4 -10 6 0 11 5 11 10 0 6 -2 10 -4 10 -3 0
-8 -4 -11 -10z"/>
<path d="M425 1420 c-18 -8 -17 -9 8 -9 15 -1 27 4 27 9 0 12 -8 12 -35 0z"/>
<path d="M531 1408 c0 -16 2 -18 6 -8 3 8 11 18 17 22 7 5 4 8 -6 8 -12 0 -18
-7 -17 -22z"/>
<path d="M600 1420 c0 -6 -11 -22 -24 -35 -28 -27 -18 -42 24 -36 21 3 22 1
11 -13 -7 -8 -10 -19 -7 -25 3 -5 -13 -25 -35 -44 -23 -19 -40 -40 -37 -47 2
-8 16 -1 38 20 24 23 39 29 49 23 7 -5 14 -13 13 -18 0 -6 5 -19 11 -30 21
-38 17 -67 -11 -92 -15 -13 -35 -23 -44 -23 -10 0 -18 -7 -18 -15 0 -20 37
-38 64 -31 34 8 39 -4 10 -26 -36 -29 -50 -64 -57 -142 -7 -73 -38 -242 -63
-341 -9 -33 -19 -76 -22 -95 -5 -21 -13 -35 -22 -35 -8 0 -24 -8 -34 -17 -11
-10 -25 -18 -31 -18 -7 0 -20 -9 -30 -20 -10 -11 -22 -20 -27 -20 -5 0 -24
-11 -41 -24 -18 -13 -59 -37 -92 -54 -80 -40 -102 -63 -110 -114 -4 -24 -16
-65 -26 -92 -19 -51 -17 -77 4 -41 6 11 12 25 13 30 1 6 12 36 23 68 11 31 17
57 14 57 -17 0 38 39 97 69 58 30 89 51 140 94 8 7 38 23 67 37 33 16 56 34
62 50 27 67 59 199 77 310 3 19 8 38 11 43 2 4 6 29 8 55 11 117 17 142 46
174 34 39 40 100 12 118 -17 11 -17 11 0 6 28 -9 23 69 -8 119 -13 22 -25 54
-25 72 0 18 -7 36 -15 41 -13 7 -14 14 -5 36 12 34 12 36 0 36 -5 0 -10 -5
-10 -10z m67 -336 c5 -14 -43 -28 -59 -18 -7 5 -5 12 8 21 21 15 45 14 51 -3z"/>
<path d="M168 1403 c6 -2 18 -2 25 0 6 3 1 5 -13 5 -14 0 -19 -2 -12 -5z"/>
<path d="M2901 1394 c0 -11 3 -14 6 -6 3 7 2 16 -1 19 -3 4 -6 -2 -5 -13z"/>
<path d="M2945 1399 c-4 -6 -5 -13 -2 -16 7 -7 27 6 27 18 0 12 -17 12 -25 -2z"/>
<path d="M470 1389 c0 -5 5 -7 10 -4 6 3 10 8 10 11 0 2 -4 4 -10 4 -5 0 -10
-5 -10 -11z"/>
<path d="M50 1380 c0 -5 7 -10 15 -10 8 0 15 5 15 10 0 6 -7 10 -15 10 -8 0
-15 -4 -15 -10z"/>
<path d="M507 1371 c-4 -17 -3 -21 5 -13 5 5 8 16 6 23 -3 8 -7 3 -11 -10z"/>
<path d="M290 1362 c0 -5 19 -9 42 -10 49 -2 47 3 -4 12 -21 4 -38 3 -38 -2z"/>
<path d="M434 1349 c28 -22 42 -20 33 3 -2 8 -17 14 -32 16 l-28 2 27 -21z"/>
<path d="M525 1330 c-3 -5 -1 -10 4 -10 6 0 11 5 11 10 0 6 -2 10 -4 10 -3 0
-8 -4 -11 -10z"/>
<path d="M2586 1310 c15 -24 16 -33 6 -55 -18 -40 -48 -30 -43 15 1 19 8 38
15 42 7 5 7 8 1 8 -34 0 -49 -76 -19 -101 19 -16 42 -4 64 34 12 22 12 29 1
51 -8 14 -20 27 -28 30 -11 4 -10 -1 3 -24z"/>
<path d="M340 1300 c0 -5 7 -10 15 -10 8 0 15 5 15 10 0 6 -7 10 -15 10 -8 0
-15 -4 -15 -10z"/>
<path d="M515 1300 c3 -5 8 -10 11 -10 2 0 4 5 4 10 0 6 -5 10 -11 10 -5 0 -7
-4 -4 -10z"/>
<path d="M308 1273 c7 -3 16 -2 19 1 4 3 -2 6 -13 5 -11 0 -14 -3 -6 -6z"/>
<path d="M28 1253 c6 -2 18 -2 25 0 6 3 1 5 -13 5 -14 0 -19 -2 -12 -5z"/>
<path d="M445 1241 c-3 -5 -1 -12 5 -16 5 -3 10 1 10 9 0 18 -6 21 -15 7z"/>
<path d="M3256 1243 c-4 -5 -11 -8 -14 -8 -12 -1 -72 -39 -72 -46 0 -4 -8 -9
-18 -11 -11 -3 -18 -16 -20 -37 -2 -26 2 -33 23 -41 21 -8 35 -5 72 15 80 45
105 87 70 118 -22 19 -30 21 -41 10z m22 -58 c-15 -22 -31 -35 -44 -35 -12 0
-24 -7 -28 -15 -5 -15 -47 -21 -59 -8 -9 9 22 43 40 43 7 0 13 5 13 10 0 12
56 39 83 40 15 0 15 -4 -5 -35z"/>
<path d="M435 1200 c-16 -7 -17 -9 -3 -9 9 -1 20 4 23 9 7 11 7 11 -20 0z"/>
<path d="M571 1201 c-7 -5 -12 -14 -10 -20 2 -6 10 -2 17 9 14 22 13 23 -7 11z"/>
<path d="M475 1189 c-4 -6 -5 -12 -2 -15 2 -3 7 2 10 11 7 17 1 20 -8 4z"/>
<path d="M158 1168 c6 -6 18 -8 28 -6 14 3 12 5 -9 10 -19 3 -25 2 -19 -4z"/>
<path d="M620 1165 c-8 -9 -8 -15 -2 -15 12 0 26 19 19 26 -2 2 -10 -2 -17
-11z"/>
<path d="M5035 1159 c-4 -6 -5 -12 -2 -15 2 -3 7 2 10 11 7 17 1 20 -8 4z"/>
<path d="M564 1145 c-10 -8 -34 -15 -51 -15 -45 0 -42 -16 2 -18 23 -1 38 4
41 13 4 8 12 15 20 15 8 0 14 5 14 10 0 13 -3 13 -26 -5z"/>
<path d="M300 1140 c-12 -8 -10 -10 8 -10 13 0 20 4 17 10 -7 12 -6 12 -25 0z"/>
<path d="M4970 1140 c-13 -8 -12 -10 3 -10 9 0 17 5 17 10 0 12 -1 12 -20 0z"/>
<path d="M130 1130 c0 -5 5 -10 10 -10 6 0 10 5 10 10 0 6 -4 10 -10 10 -5 0
-10 -4 -10 -10z"/>
<path d="M428 1123 c6 -2 18 -2 25 0 6 3 1 5 -13 5 -14 0 -19 -2 -12 -5z"/>
<path d="M5045 1120 c-16 -7 -17 -9 -3 -9 9 -1 20 4 23 9 7 11 7 11 -20 0z"/>
<path d="M290 1110 c0 -13 11 -13 30 0 12 8 11 10 -7 10 -13 0 -23 -4 -23 -10z"/>
<path d="M120 1091 c0 -5 7 -11 15 -15 8 -3 15 -1 15 3 0 5 -7 11 -15 15 -8 3
-15 1 -15 -3z"/>
<path d="M5480 1095 c0 -5 5 -17 10 -25 5 -8 10 -10 10 -5 0 6 -5 17 -10 25
-5 8 -10 11 -10 5z"/>
<path d="M60 1080 c0 -13 11 -13 30 0 12 8 11 10 -7 10 -13 0 -23 -4 -23 -10z"/>
<path d="M1485 1079 c-4 -6 -4 -13 -1 -16 3 -4 6 -1 6 6 0 8 6 11 16 7 8 -3
12 -2 9 4 -8 13 -22 13 -30 -1z"/>
<path d="M4986 1074 c-3 -9 -5 -25 -5 -37 1 -16 3 -14 8 8 7 35 25 40 29 8 2
-13 -1 -23 -7 -23 -18 0 -13 -27 6 -34 23 -9 45 21 41 54 -2 17 -9 25 -20 24
-10 -1 -18 2 -18 7 0 15 -28 10 -34 -7z m64 -22 c0 -10 -7 -27 -16 -38 -15
-18 -15 -18 -10 6 3 14 6 31 6 38 0 6 5 12 10 12 6 0 10 -8 10 -18z"/>
<path d="M5401 1074 c0 -11 3 -14 6 -6 3 7 2 16 -1 19 -3 4 -6 -2 -5 -13z"/>
<path d="M5451 1074 c0 -11 3 -14 6 -6 3 7 2 16 -1 19 -3 4 -6 -2 -5 -13z"/>
<path d="M210 1069 c0 -5 5 -7 10 -4 6 3 10 8 10 11 0 2 -4 4 -10 4 -5 0 -10
-5 -10 -11z"/>
<path d="M340 1070 c0 -5 5 -10 11 -10 5 0 7 5 4 10 -3 6 -8 10 -11 10 -2 0
-4 -4 -4 -10z"/>
<path d="M5542 1067 c9 -7 18 -24 21 -37 l4 -25 2 26 c1 26 -15 49 -33 49 -6
0 -4 -6 6 -13z"/>
<path d="M1335 1060 c-3 -5 1 -10 9 -10 9 0 16 -5 16 -10 0 -6 -10 -10 -22 -9
-40 4 -59 -1 -53 -11 3 -5 -1 -10 -10 -10 -24 0 -30 -28 -10 -50 22 -25 25
-25 78 0 51 24 64 22 101 -13 16 -15 35 -27 43 -27 8 0 12 -4 9 -9 -3 -5 1
-11 9 -15 8 -3 15 -12 15 -20 0 -8 3 -16 8 -18 4 -2 15 -18 24 -36 14 -27 16
-38 6 -55 -10 -20 -10 -21 6 -8 9 8 19 11 23 7 4 -3 -2 -13 -13 -20 -18 -14
-18 -16 -2 -32 16 -16 18 -16 24 -1 5 14 10 15 27 5 12 -7 32 -11 43 -9 12 1
24 -5 27 -13 4 -11 19 -16 44 -15 21 1 56 -8 77 -19 35 -17 42 -18 54 -5 8 8
17 11 20 8 4 -3 1 -10 -7 -14 -9 -6 -6 -10 11 -14 48 -13 52 1 11 38 -17 14
-22 24 -14 25 11 0 11 3 1 16 -19 22 -51 38 -85 40 -49 4 -99 15 -111 25 -6 5
-14 5 -20 -1 -11 -11 -84 -2 -84 10 0 4 7 13 15 20 12 10 18 10 30 0 8 -6 19
-9 25 -5 15 9 12 45 -5 51 -11 5 -12 10 -3 24 7 10 16 16 22 13 5 -3 6 -1 2 6
-4 6 -13 8 -19 4 -7 -3 -3 4 8 16 20 23 20 23 0 37 -18 13 -22 12 -40 -13 -10
-14 -20 -34 -22 -42 -1 -12 2 -11 13 4 13 17 16 18 24 5 14 -21 12 -27 -6 -34
-14 -5 -15 -4 -4 9 9 11 9 15 1 15 -6 0 -14 -7 -17 -15 -5 -12 -8 -12 -18 -2
-34 33 -44 88 -13 71 7 -4 9 -4 5 1 -4 4 3 16 15 27 12 11 17 17 12 15 -16 -8
-49 20 -34 28 6 4 15 1 20 -6 4 -7 11 -10 15 -6 9 9 -15 37 -31 37 -7 0 -18
-7 -25 -15 -11 -14 -14 -13 -27 5 -13 18 -40 19 -29 1 3 -4 -4 -13 -16 -20
-11 -7 -17 -8 -13 -2 4 8 -2 8 -19 1 -25 -9 -92 -3 -82 8 7 7 -13 42 -24 42
-5 0 -12 -4 -15 -10z m15 -50 c8 -5 11 -12 8 -16 -4 -3 -14 1 -23 10 -18 17
-9 21 15 6z m175 0 c-3 -5 -11 -10 -16 -10 -6 0 -7 5 -4 10 3 6 11 10 16 10 6
0 7 -4 4 -10z m-217 -34 c-11 -11 -18 -12 -26 -4 -8 8 -7 15 6 24 23 17 39 0
20 -20z m107 25 c3 -5 16 -8 29 -5 23 4 25 0 17 -34 -1 -2 -11 4 -23 12 -12 9
-30 16 -40 16 -9 0 -20 5 -23 10 -3 6 3 10 14 10 11 0 22 -4 26 -9z m165 -22
c0 -6 -4 -7 -10 -4 -5 3 -10 11 -10 16 0 6 5 7 10 4 6 -3 10 -11 10 -16z m-25
-9 c3 -5 -1 -10 -9 -10 -9 0 -16 5 -16 10 0 6 4 10 9 10 6 0 13 -4 16 -10z
m-55 -10 c29 -16 91 -109 88 -133 -2 -17 -8 -11 -27 28 -14 28 -31 54 -38 58
-7 4 -13 15 -13 22 0 8 -9 15 -20 15 -11 0 -20 5 -20 10 0 13 6 13 30 0z m160
-20 c0 -5 -4 -10 -10 -10 -5 0 -10 5 -10 10 0 6 5 10 10 10 6 0 10 -4 10 -10z
m-30 -90 c0 -5 -4 -10 -10 -10 -5 0 -10 5 -10 10 0 6 5 10 10 10 6 0 10 -4 10
-10z m26 -27 c-10 -10 -19 5 -10 18 6 11 8 11 12 0 2 -7 1 -15 -2 -18z m-26
-62 c0 -5 13 -9 30 -9 20 1 38 -8 54 -25 31 -34 19 -35 -19 -2 -18 15 -33 21
-40 15 -6 -5 -17 -3 -28 4 -19 15 -22 26 -7 26 6 0 10 -4 10 -9z m174 -34 c8
9 66 -21 66 -34 0 -21 -14 -21 -55 -2 -22 10 -52 23 -67 28 -16 6 -28 15 -28
20 0 6 16 4 39 -4 22 -7 42 -11 45 -8z m-214 3 c0 -5 -2 -10 -4 -10 -3 0 -8 5
-11 10 -3 6 -1 10 4 10 6 0 11 -4 11 -10z"/>
<path d="M438 1053 c-21 -5 -24 -23 -4 -23 22 0 46 11 46 21 0 9 -13 10 -42 2z"/>
<path d="M549 1039 c-9 -13 -29 -22 -54 -26 -57 -7 -58 -15 -2 -12 26 2 47 6
47 11 0 4 11 8 25 8 14 0 25 5 25 11 0 5 -4 7 -10 4 -6 -3 -7 1 -4 9 9 23 -11
19 -27 -5z"/>
<path d="M498 1043 c7 -3 16 -2 19 1 4 3 -2 6 -13 5 -11 0 -14 -3 -6 -6z"/>
<path d="M5152 1038 c-7 -7 -11 -28 -11 -47 1 -20 3 -27 6 -16 2 11 6 30 9 43
7 32 26 27 21 -5 -2 -16 -2 -22 0 -15 3 6 9 12 15 12 5 0 8 -7 5 -15 -4 -8 -3
-17 2 -19 4 -3 7 8 7 24 0 16 -3 27 -7 25 -4 -3 -9 2 -13 10 -7 18 -18 19 -34
3z"/>
<path d="M5468 1043 c7 -3 16 -2 19 1 4 3 -2 6 -13 5 -11 0 -14 -3 -6 -6z"/>
<path d="M5514 999 c1 -32 10 -38 20 -13 3 8 0 22 -8 29 -11 11 -13 9 -12 -16z"/>
<path d="M5231 1004 c0 -11 3 -14 6 -6 3 7 2 16 -1 19 -3 4 -6 -2 -5 -13z"/>
<path d="M5919 1011 c19 -12 6 -28 -29 -36 -45 -10 -67 -48 -52 -89 14 -39 15
-49 3 -42 -5 4 -7 -3 -4 -14 3 -11 9 -23 14 -26 5 -3 9 -18 9 -34 0 -29 5 -42
55 -154 14 -33 33 -91 42 -130 8 -39 21 -77 29 -85 11 -12 12 -11 9 5 -3 10
-12 54 -20 97 -9 44 -25 98 -37 120 -12 23 -21 46 -20 50 1 4 -4 20 -12 35
-24 48 -28 69 -11 69 8 0 15 -8 15 -17 0 -23 26 -45 35 -30 4 6 1 9 -6 8 -9
-2 -16 13 -20 42 -4 25 -10 55 -14 68 -11 33 -1 27 29 -19 19 -28 25 -47 20
-62 -6 -19 -5 -20 10 -8 14 11 16 11 16 -2 0 -9 3 -18 8 -20 4 -3 7 15 7 39 0
24 -3 44 -7 44 -5 0 -8 5 -8 11 0 5 4 7 10 4 13 -8 5 74 -9 88 -8 8 -11 7 -11
-2 0 -11 -3 -11 -15 -1 -8 7 -12 16 -9 21 3 5 -2 6 -10 3 -12 -4 -16 0 -16 16
0 19 4 22 29 17 21 -4 31 -2 35 9 11 28 6 34 -14 22 -15 -10 -22 -10 -32 0 -6
6 -17 12 -22 12 -6 0 -5 -4 3 -9z m-8 -86 c41 -30 59 -53 59 -74 0 -11 -8 -6
-23 13 -20 24 -29 28 -54 23 -23 -4 -33 -2 -37 9 -10 27 -7 36 10 30 14 -5 15
-4 4 9 -19 23 2 18 41 -10z m77 -50 c-3 -3 -9 2 -12 12 -6 14 -5 15 5 6 7 -7
10 -15 7 -18z m-86 -62 c17 -21 -8 -23 -26 -2 -14 17 -15 23 -4 36 12 15 13
14 17 -3 2 -10 7 -24 13 -31z"/>
<path d="M340 990 c0 -11 4 -20 9 -20 5 0 7 9 4 20 -3 11 -7 20 -9 20 -2 0 -4
-9 -4 -20z"/>
<path d="M375 991 c-3 -5 -1 -12 5 -16 5 -3 10 1 10 9 0 18 -6 21 -15 7z"/>
<path d="M555 990 c-3 -5 -2 -10 4 -10 5 0 13 5 16 10 3 6 2 10 -4 10 -5 0
-13 -4 -16 -10z"/>
<path d="M5565 974 c0 -13 3 -24 8 -24 4 0 7 9 7 19 0 11 -3 22 -7 24 -5 3 -8
-6 -8 -19z"/>
<path d="M28 983 c7 -3 16 -2 19 1 4 3 -2 6 -13 5 -11 0 -14 -3 -6 -6z"/>
<path d="M484 975 c-17 -13 -16 -14 14 -4 33 11 41 19 19 19 -7 0 -22 -7 -33
-15z"/>
<path d="M5444 935 c1 -54 3 -60 22 -60 18 0 19 2 8 25 -7 14 -17 41 -22 60
-9 32 -9 29 -8 -25z"/>
<path d="M5470 970 c0 -5 5 -10 10 -10 6 0 10 5 10 10 0 6 -4 10 -10 10 -5 0
-10 -4 -10 -10z"/>
<path d="M5160 960 c0 -5 5 -10 11 -10 5 0 7 5 4 10 -3 6 -8 10 -11 10 -2 0
-4 -4 -4 -10z"/>
<path d="M510 956 c0 -2 7 -7 16 -10 8 -3 12 -2 9 4 -6 10 -25 14 -25 6z"/>
<path d="M561 944 c0 -11 3 -14 6 -6 3 7 2 16 -1 19 -3 4 -6 -2 -5 -13z"/>
<path d="M5240 922 c0 -22 3 -43 8 -46 8 -5 6 73 -3 82 -3 3 -5 -13 -5 -36z"/>
<path d="M5392 949 c2 -7 10 -15 17 -17 8 -3 12 1 9 9 -2 7 -10 15 -17 17 -8
3 -12 -1 -9 -9z"/>
<path d="M5513 949 c3 -9 1 -22 -4 -30 -6 -11 -9 -8 -9 9 0 22 -1 22 -16 7
-21 -20 -13 -28 26 -27 21 0 30 -4 30 -15 0 -9 3 -14 6 -10 4 3 3 14 -1 24 -5
10 -9 21 -9 25 -1 4 -7 13 -15 20 -12 11 -13 10 -8 -3z"/>
<path d="M5214 928 c-4 -13 -7 -35 -6 -50 0 -15 -4 -30 -9 -33 -5 -4 -9 -11
-9 -18 0 -29 28 33 34 76 8 49 2 63 -10 25z"/>
<path d="M421 931 c-7 -5 -9 -11 -4 -14 5 -3 15 -2 22 2 7 5 9 11 4 14 -5 3
-15 2 -22 -2z"/>
<path d="M470 925 c0 -9 6 -12 15 -9 8 4 15 10 15 15 0 5 -7 9 -15 9 -8 0 -15
-7 -15 -15z"/>
<path d="M5139 927 c7 -7 14 -8 21 -1 6 6 2 10 -12 11 -16 2 -18 -1 -9 -10z"/>
<path d="M5372 920 c0 -14 2 -19 5 -12 2 6 2 18 0 25 -3 6 -5 1 -5 -13z"/>
<path d="M220 920 c-13 -8 -12 -10 3 -10 9 0 17 5 17 10 0 12 -1 12 -20 0z"/>
<path d="M330 910 c0 -5 5 -10 10 -10 6 0 10 5 10 10 0 6 -4 10 -10 10 -5 0
-10 -4 -10 -10z"/>
<path d="M520 910 c-13 -8 -12 -10 3 -10 9 0 20 0 24 -1 4 0 9 4 11 10 5 14
-18 14 -38 1z"/>
<path d="M5395 896 c-14 -17 -17 -36 -5 -36 12 0 24 25 18 39 -1 5 -7 4 -13
-3z"/>
<path d="M5806 892 c-2 -4 -1 -14 4 -22 7 -11 9 -9 7 8 -1 24 -3 26 -11 14z"/>
<path d="M125 880 c3 -5 11 -10 16 -10 6 0 7 5 4 10 -3 6 -11 10 -16 10 -6 0
-7 -4 -4 -10z"/>
<path d="M420 880 c0 -4 9 -10 20 -13 11 -3 20 -2 20 3 0 4 -9 10 -20 13 -11
3 -20 2 -20 -3z"/>
<path d="M5508 878 c8 -8 7 -15 -6 -24 -16 -12 -16 -13 0 -14 9 0 19 4 23 10
3 5 12 7 20 3 8 -3 15 -1 15 4 0 5 -14 14 -32 21 -23 8 -28 8 -20 0z"/>
<path d="M70 855 c0 -18 4 -23 15 -19 18 7 20 24 3 25 -7 0 -4 4 7 9 19 8 19
9 -2 9 -18 1 -23 -5 -23 -24z"/>
<path d="M277 860 c3 -11 7 -20 9 -20 2 0 4 9 4 20 0 11 -4 20 -9 20 -5 0 -7
-9 -4 -20z"/>
<path d="M518 873 c6 -2 18 -2 25 0 6 3 1 5 -13 5 -14 0 -19 -2 -12 -5z"/>
<path d="M5780 839 c9 -31 2 -37 -18 -17 -9 9 -12 8 -12 -4 0 -20 31 -33 41
-17 4 6 12 8 18 5 6 -4 11 -2 11 3 0 6 -4 11 -10 11 -5 0 -10 9 -10 19 0 10
-6 21 -14 24 -11 5 -13 0 -6 -24z"/>
<path d="M5240 849 c0 -7 -10 -24 -22 -38 l-23 -26 26 23 c14 12 28 22 32 22
10 0 -4 -123 -16 -137 -7 -10 -4 -13 11 -13 12 0 24 5 27 10 8 13 45 13 45 1
0 -5 -8 -12 -17 -14 -14 -4 -13 -5 4 -6 18 -1 23 6 28 43 6 39 9 43 37 44 25
1 29 -3 25 -19 -3 -10 -2 -21 2 -23 11 -7 6 -57 -7 -65 -7 -4 -4 -11 10 -20
18 -11 20 -11 15 3 -3 8 -2 18 3 21 18 11 8 145 -10 145 -5 0 -7 -6 -4 -14 3
-9 -4 -15 -20 -18 -14 -3 -26 -1 -26 3 0 5 -4 9 -8 9 -11 0 -34 -49 -28 -59 3
-4 -5 -7 -17 -6 -12 1 -25 -2 -28 -8 -12 -17 -20 62 -9 83 9 17 7 26 -9 47
-12 14 -21 20 -21 12z m177 -111 c-3 -8 -6 -5 -6 6 -1 11 2 17 5 13 3 -3 4
-12 1 -19z"/>
<path d="M5410 850 c0 -5 5 -10 11 -10 5 0 7 5 4 10 -3 6 -8 10 -11 10 -2 0
-4 -4 -4 -10z"/>
<path d="M5447 848 c9 -15 6 -112 -6 -185 -4 -29 -4 -50 1 -47 4 3 8 16 8 28
0 13 11 40 25 60 26 38 26 59 0 49 -18 -6 -20 8 -4 24 8 8 8 17 0 32 -9 16 -9
21 0 21 8 0 8 4 -1 15 -15 18 -34 20 -23 3z"/>
<path d="M5586 847 c3 -10 9 -15 12 -12 3 3 0 11 -7 18 -10 9 -11 8 -5 -6z"/>
<path d="M5710 849 c0 -5 9 -9 20 -9 11 0 20 2 20 4 0 2 -9 6 -20 9 -11 3 -20
1 -20 -4z"/>
<path d="M245 830 c3 -5 10 -10 16 -10 5 0 9 5 9 10 0 6 -7 10 -16 10 -8 0
-12 -4 -9 -10z"/>
<path d="M520 830 c0 -7 6 -10 14 -7 8 3 17 2 20 -4 2 -5 3 -4 2 3 -3 17 -36
23 -36 8z"/>
<path d="M5311 831 c-8 -5 -16 -22 -17 -38 -1 -15 0 -20 3 -10 3 12 10 16 20
13 12 -5 13 -3 5 7 -9 10 -8 17 0 25 14 14 9 15 -11 3z"/>
<path d="M5351 824 c0 -11 3 -14 6 -6 3 7 2 16 -1 19 -3 4 -6 -2 -5 -13z"/>
<path d="M5653 828 c2 -7 10 -13 17 -13 8 0 17 -11 21 -25 l7 -25 1 24 c1 13
-7 30 -16 37 -23 17 -36 18 -30 2z"/>
<path d="M121 820 c-19 -11 5 -23 25 -12 14 8 14 10 2 15 -8 3 -21 2 -27 -3z"/>
<path d="M178 823 c7 -3 16 -2 19 1 4 3 -2 6 -13 5 -11 0 -14 -3 -6 -6z"/>
<path d="M5363 811 c-19 -16 -20 -20 -8 -25 16 -6 58 28 48 38 -9 9 -16 7 -40
-13z"/>
<path d="M5535 820 c-3 -5 -12 -7 -20 -3 -8 3 -15 1 -15 -5 0 -6 -3 -18 -7
-28 -5 -13 -1 -12 16 5 14 14 30 21 42 18 10 -3 19 -2 19 3 0 12 -29 20 -35
10z"/>
<path d="M5606 815 c-22 -16 -21 -20 10 -29 19 -6 21 -3 16 19 -2 14 -5 25 -6
25 0 0 -10 -7 -20 -15z"/>
<path d="M5710 817 c0 -19 16 -31 24 -18 3 5 -1 14 -9 21 -12 10 -15 10 -15
-3z"/>
<path d="M492 800 c0 -14 2 -19 5 -12 2 6 2 18 0 25 -3 6 -5 1 -5 -13z"/>
<path d="M370 784 c0 -8 5 -12 10 -9 6 4 8 11 5 16 -9 14 -15 11 -15 -7z"/>
<path d="M521 784 c0 -11 3 -14 6 -6 3 7 2 16 -1 19 -3 4 -6 -2 -5 -13z"/>
<path d="M538 777 c-3 -19 -2 -25 4 -19 6 6 8 18 6 28 -3 14 -5 12 -10 -9z"/>
<path d="M5656 792 c-3 -6 -1 -14 5 -17 14 -9 20 -2 10 14 -6 8 -11 9 -15 3z"/>
<path d="M5555 781 c3 -5 -1 -11 -9 -13 -12 -2 -11 -8 5 -27 17 -20 22 -22 29
-11 6 10 4 17 -5 23 -8 4 -12 14 -9 22 4 8 1 15 -6 15 -6 0 -9 -4 -5 -9z"/>
<path d="M5730 773 c0 -5 5 -15 10 -23 8 -12 10 -11 10 8 0 12 -4 22 -10 22
-5 0 -10 -3 -10 -7z"/>
<path d="M5770 770 c0 -5 5 -10 10 -10 6 0 10 5 10 10 0 6 -4 10 -10 10 -5 0
-10 -4 -10 -10z"/>
<path d="M30 760 c0 -5 5 -10 10 -10 6 0 10 5 10 10 0 6 -4 10 -10 10 -5 0
-10 -4 -10 -10z"/>
<path d="M70 758 c0 -4 7 -8 15 -8 8 0 15 4 15 8 0 5 -7 9 -15 9 -8 0 -15 -4
-15 -9z"/>
<path d="M155 760 c3 -5 8 -10 11 -10 2 0 4 5 4 10 0 6 -5 10 -11 10 -5 0 -7
-4 -4 -10z"/>
<path d="M236 753 c-4 -9 -4 -18 -1 -21 3 -3 5 0 5 6 0 6 8 12 18 14 15 3 16
4 0 10 -10 4 -19 1 -22 -9z"/>
<path d="M5275 750 c-3 -5 -1 -10 4 -10 6 0 11 5 11 10 0 6 -2 10 -4 10 -3 0
-8 -4 -11 -10z"/>
<path d="M5515 720 c4 -107 4 -107 20 -86 17 22 13 77 -7 108 -14 21 -15 20
-13 -22z"/>
<path d="M5610 750 c8 -5 24 -10 34 -10 26 0 18 6 -19 14 -22 5 -26 4 -15 -4z"/>
<path d="M320 738 c0 -11 28 -10 35 1 3 6 -4 9 -15 8 -11 -1 -20 -5 -20 -9z"/>
<path d="M5702 730 c13 -20 28 -27 28 -12 0 10 -22 32 -32 32 -5 0 -3 -9 4
-20z"/>
<path d="M5780 743 c0 -6 5 -15 11 -18 6 -4 14 -17 19 -29 5 -12 9 -15 9 -6 0
8 -8 26 -19 40 -11 14 -20 20 -20 13z"/>
<path d="M5226 723 c-6 -14 -5 -15 5 -6 7 7 10 15 7 18 -3 3 -9 -2 -12 -12z"/>
<path d="M5357 723 c-3 -10 -8 -31 -11 -48 -6 -28 -5 -29 8 -12 8 11 12 26 8
35 -5 15 -4 15 14 2 12 -9 15 -9 7 -1 -6 7 -9 20 -6 27 3 8 0 14 -5 14 -6 0
-13 -8 -15 -17z"/>
<path d="M48 718 c5 -5 16 -8 23 -6 8 3 3 7 -10 11 -17 4 -21 3 -13 -5z"/>
<path d="M5632 723 c24 -50 33 -63 41 -63 5 0 6 8 2 18 -3 9 -7 22 -8 27 -2
12 -18 25 -30 25 -5 0 -7 -3 -5 -7z"/>
<path d="M5750 721 c0 -6 5 -13 10 -16 6 -3 10 1 10 9 0 9 -4 16 -10 16 -5 0
-10 -4 -10 -9z"/>
<path d="M5590 710 c0 -5 5 -10 10 -10 6 0 10 5 10 10 0 6 -4 10 -10 10 -5 0
-10 -4 -10 -10z"/>
<path d="M292 685 c0 -16 2 -22 5 -12 2 9 2 23 0 30 -3 6 -5 -1 -5 -18z"/>
<path d="M420 700 c0 -5 7 -7 15 -4 8 4 15 8 15 10 0 2 -7 4 -15 4 -8 0 -15
-4 -15 -10z"/>
<path d="M503 700 c-24 -10 -30 -25 -13 -35 6 -3 10 -1 10 6 0 6 8 18 18 25
20 15 16 16 -15 4z"/>
<path d="M5486 697 c3 -10 9 -15 12 -12 3 3 0 11 -7 18 -10 9 -11 8 -5 -6z"/>
<path d="M85 691 c-6 -11 9 -23 19 -14 9 9 7 23 -3 23 -6 0 -12 -4 -16 -9z"/>
<path d="M256 691 c-4 -7 -5 -15 -2 -18 9 -9 19 4 14 18 -4 11 -6 11 -12 0z"/>
<path d="M5850 691 c0 -6 4 -13 10 -16 6 -3 7 1 4 9 -7 18 -14 21 -14 7z"/>
<path d="M5600 681 c0 -5 7 -12 16 -15 22 -9 24 -8 24 9 0 8 -9 15 -20 15 -11
0 -20 -4 -20 -9z"/>
<path d="M5767 670 c-8 -30 -4 -35 20 -21 10 6 13 11 6 11 -6 0 -13 8 -15 18
-3 13 -5 11 -11 -8z"/>
<path d="M5570 670 c-12 -8 -13 -13 -2 -30 11 -18 10 -20 -8 -20 -11 0 -20 -4
-20 -10 0 -13 27 -13 35 -1 3 6 13 10 23 10 9 0 32 3 51 8 30 7 32 10 17 22
-14 12 -19 11 -36 -4 -21 -19 -35 -13 -42 17 -2 13 -7 15 -18 8z"/>
<path d="M420 655 c0 -8 7 -15 15 -15 9 0 12 6 9 15 -4 8 -10 15 -15 15 -5 0
-9 -7 -9 -15z"/>
<path d="M160 640 c0 -5 5 -10 11 -10 5 0 7 5 4 10 -3 6 -8 10 -11 10 -2 0 -4
-4 -4 -10z"/>
<path d="M35 610 c3 -5 8 -10 11 -10 2 0 4 5 4 10 0 6 -5 10 -11 10 -5 0 -7
-4 -4 -10z"/>
<path d="M306 605 c4 -8 8 -15 10 -15 2 0 4 7 4 15 0 8 -4 15 -10 15 -5 0 -7
-7 -4 -15z"/>
<path d="M5656 589 c13 -26 14 -33 2 -40 -7 -5 -16 -9 -20 -9 -5 0 -8 -6 -8
-13 0 -12 38 -37 65 -42 6 -2 28 -13 50 -26 21 -13 44 -24 50 -25 5 -1 19 -6
29 -10 13 -5 17 -4 13 4 -4 6 -21 13 -37 17 -17 4 -30 11 -30 16 0 5 -3 8 -7
7 -5 -1 -34 11 -66 28 l-58 30 43 22 c31 16 37 22 22 22 -15 0 -24 8 -28 25
-4 14 -13 25 -21 25 -14 0 -13 -4 1 -31z"/>
<path d="M5861 603 c-8 -9 -16 -11 -20 -5 -3 5 -15 6 -26 1 l-20 -8 20 -1 c11
-1 30 -3 42 -4 12 -1 24 3 27 10 8 20 -7 24 -23 7z"/>
<path d="M388 603 c6 -2 18 -2 25 0 6 3 1 5 -13 5 -14 0 -19 -2 -12 -5z"/>
<path d="M506 595 c-3 -8 -1 -15 4 -15 6 0 10 7 10 15 0 8 -2 15 -4 15 -2 0
-6 -7 -10 -15z"/>
<path d="M260 575 c-10 -12 -10 -15 4 -15 9 0 16 7 16 15 0 8 -2 15 -4 15 -2
0 -9 -7 -16 -15z"/>
<path d="M10 570 c-11 -8 -8 -9 12 -4 14 3 35 1 46 -5 12 -6 23 -7 26 -2 3 5
-8 11 -25 15 -40 8 -41 8 -59 -4z"/>
<path d="M5895 560 c3 -5 8 -10 11 -10 2 0 4 5 4 10 0 6 -5 10 -11 10 -5 0 -7
-4 -4 -10z"/>
<path d="M180 550 c0 -5 5 -10 11 -10 5 0 7 5 4 10 -3 6 -8 10 -11 10 -2 0 -4
-4 -4 -10z"/>
<path d="M5744 549 c-4 -8 -3 -9 4 -5 7 4 12 1 12 -8 0 -17 -36 -22 -42 -6 -2
6 -9 6 -18 0 -11 -7 -2 -15 39 -34 29 -13 60 -22 67 -19 8 3 14 0 14 -7 0 -6
5 -8 10 -5 6 3 10 1 10 -6 0 -6 8 -9 19 -6 11 3 22 0 24 -7 2 -6 3 -3 1 7 -2
13 2 17 13 13 8 -3 19 -6 24 -6 5 0 9 -7 9 -16 0 -11 -5 -14 -16 -10 -14 5
-15 4 -4 -9 7 -8 16 -12 21 -9 5 3 9 0 9 -5 0 -6 -6 -11 -12 -11 -7 0 -2 -7
10 -16 12 -8 30 -13 40 -11 14 4 13 6 -5 12 -21 7 -28 21 -24 52 1 6 -3 14 -9
18 -5 3 -10 14 -10 24 0 14 -6 17 -30 13 -16 -2 -30 -8 -30 -13 0 -5 -4 -9
-10 -9 -5 0 -10 7 -10 16 0 10 -8 15 -22 14 -58 -5 -69 -1 -62 24 6 26 -10 44
-22 25z"/>
<path d="M400 536 c0 -2 11 -6 25 -8 13 -3 22 -1 19 3 -5 9 -44 13 -44 5z"/>
<path d="M5837 524 c3 -8 11 -14 19 -14 21 0 17 17 -5 23 -14 3 -18 1 -14 -9z"/>
<path d="M462 510 c-44 -10 -50 -18 -12 -15 17 1 36 7 43 14 6 6 9 11 7 10 -3
-1 -20 -5 -38 -9z"/>
<path d="M115 501 c-3 -5 -1 -12 5 -16 12 -7 30 2 30 16 0 12 -27 12 -35 0z"/>
<path d="M270 490 c0 -5 -7 -10 -15 -10 -8 0 -15 -4 -15 -10 0 -5 7 -10 15
-10 8 0 15 5 15 11 0 5 4 7 10 4 6 -3 7 1 4 9 -7 18 -14 21 -14 6z"/>
<path d="M420 466 c0 -9 5 -16 10 -16 6 0 10 4 10 9 0 6 -4 13 -10 16 -5 3
-10 -1 -10 -9z"/>
<path d="M0 460 c0 -5 7 -10 16 -10 8 0 12 5 9 10 -3 6 -10 10 -16 10 -5 0 -9
-4 -9 -10z"/>
<path d="M450 460 c0 -5 4 -10 9 -10 6 0 13 5 16 10 3 6 -1 10 -9 10 -9 0 -16
-4 -16 -10z"/>
<path d="M153 450 c-32 -13 -29 -17 7 -12 16 2 27 8 24 13 -3 5 -6 9 -7 8 -1
0 -12 -4 -24 -9z"/>
<path d="M370 410 c0 -6 7 -10 15 -10 8 0 15 2 15 4 0 2 -7 6 -15 10 -8 3 -15
1 -15 -4z"/>
<path d="M280 400 c8 -5 20 -10 25 -10 6 0 3 5 -5 10 -8 5 -19 10 -25 10 -5 0
-3 -5 5 -10z"/>
<path d="M327 404 c-12 -12 6 -34 27 -34 20 1 20 1 -3 14 -23 13 -23 14 -5 19
13 3 14 5 3 6 -9 0 -18 -2 -22 -5z"/>
<path d="M240 379 c0 -5 5 -7 10 -4 6 3 10 8 10 11 0 2 -4 4 -10 4 -5 0 -10
-5 -10 -11z"/>
<path d="M45 370 c3 -5 8 -10 11 -10 2 0 4 5 4 10 0 6 -5 10 -11 10 -5 0 -7
-4 -4 -10z"/>
<path d="M70 340 c0 -5 9 -10 20 -10 11 0 20 5 20 10 0 6 -9 10 -20 10 -11 0
-20 -4 -20 -10z"/>
<path d="M180 306 c0 -7 10 -16 23 -19 20 -6 21 -5 4 7 -14 11 -15 15 -5 19 8
4 7 6 -4 6 -10 1 -18 -5 -18 -13z"/>
<path d="M142 285 c0 -16 2 -22 5 -12 2 9 2 23 0 30 -3 6 -5 -1 -5 -18z"/>
<path d="M226 298 c3 -5 10 -6 15 -3 13 9 11 12 -6 12 -8 0 -12 -4 -9 -9z"/>
<path d="M58 253 c7 -3 16 -2 19 1 4 3 -2 6 -13 5 -11 0 -14 -3 -6 -6z"/>
<path d="M65 200 c-3 -5 -1 -10 4 -10 6 0 11 5 11 10 0 6 -2 10 -4 10 -3 0 -8
-4 -11 -10z"/>
<path d="M25 120 c-3 -5 -1 -10 4 -10 6 0 11 5 11 10 0 6 -2 10 -4 10 -3 0 -8
-4 -11 -10z"/>
</g>
</svg>
